<svg width="36" height="36" viewBox="0 0 36 36" fill="none" xmlns="http://www.w3.org/2000/svg">
<path d="M30.1555 2H5.84451C3.72125 2 2 3.9125 2 6.27169V29.7283C2 32.0875 3.72125 34 5.84451 34H30.1555C32.2788 34 34 32.0875 34 29.7283V6.27169C34 3.9125 32.2788 2 30.1555 2Z" fill="#CC3B33"/>
<path d="M10.1185 22.5976L8.46143 20.4535C8.30698 20.2552 8.18629 20.0174 8.10709 19.7551C8.02789 19.4929 7.99193 19.2119 8.00152 18.9304C8.0111 18.6489 8.06602 18.3729 8.16274 18.1202C8.25947 17.8675 8.39589 17.6437 8.56325 17.4629C10.451 15.4982 12.6677 14.1329 15.0352 13.4769C17.2205 12.8439 19.4857 12.841 21.67 13.4684C24.0463 14.1226 26.269 15.4923 28.1579 17.4664C28.3246 17.6462 28.4602 17.8689 28.5566 18.1204C28.6529 18.3719 28.7076 18.6467 28.7173 18.9274C28.727 19.208 28.6914 19.4883 28.6128 19.7503C28.5341 20.0123 28.4143 20.2505 28.2607 20.4495L26.6004 22.598C26.3344 22.9489 25.9791 23.1629 25.6007 23.2003C25.2222 23.2377 24.8465 23.0957 24.5434 22.8009C23.9431 22.2053 23.2924 21.6998 22.604 21.2938C22.3318 21.1343 22.1008 20.8772 21.9384 20.5528C21.776 20.2285 21.6889 19.8505 21.6875 19.4636L21.689 17.6464C19.5183 16.8765 17.226 16.8795 15.0542 17.6549L15.0527 19.4721C15.0508 19.859 14.9631 20.2372 14.8002 20.5619C14.6373 20.8868 14.4059 21.1445 14.1335 21.3047C13.4444 21.7125 12.7929 22.2197 12.1916 22.8167C11.885 23.1157 11.5043 23.2585 11.122 23.218C10.7398 23.1777 10.3826 22.9568 10.1185 22.5976Z" fill="white"/>
</svg>
