<svg width="318" height="116" viewBox="0 0 318 116" fill="none" xmlns="http://www.w3.org/2000/svg">
<g clip-path="url(#clip0_8098_2421)">
<path d="M77.4896 93.0979H73.5857L70.2732 83.4062L68.6152 93.0979H65.4755L67.5753 80.8213H71.559L74.7818 90.4499L76.4298 80.8213H79.5895L77.4896 93.0979Z" fill="#FF4B00"/>
<path d="M92.7997 85.2602C92.4475 87.3168 91.4009 88.2737 89.125 88.2737H83.3904L83.0548 90.2273C82.9385 90.9018 83.2243 91.244 83.8854 91.244H91.3677L91.0521 93.0979H82.5631C80.2705 93.0979 79.5894 92.1411 80.0546 89.4133L80.8985 84.486C81.367 81.7383 82.3504 80.8213 84.6629 80.8213H90.3975C92.6103 80.8213 93.4144 81.6552 93.0223 83.9345L92.7964 85.2602H92.7997ZM89.9125 83.672C90.0254 83.0208 89.7397 82.6753 89.0984 82.6753H85.3573C84.6928 82.6753 84.2908 83.0208 84.1811 83.672L83.7193 86.3798H88.4672C89.1117 86.3798 89.5104 86.0542 89.6234 85.3831L89.9158 83.6753L89.9125 83.672Z" fill="#FF4B00"/>
<path d="M98.4546 80.8213H104.169C106.462 80.8213 107.176 81.6984 106.758 84.1604L105.804 89.7389C105.382 92.2009 104.365 93.0979 102.073 93.0979H96.3581C94.0656 93.0979 93.3712 92.2042 93.7932 89.7389L94.7467 84.1604C95.1687 81.6984 96.1621 80.8213 98.4579 80.8213H98.4546ZM103.681 83.672C103.794 83.0208 103.508 82.6753 102.867 82.6753H99.1457C98.4812 82.6753 98.0792 83.0208 97.9695 83.672L96.8499 90.2273C96.7336 90.9018 97.0193 91.244 97.6805 91.244H101.402C102.046 91.244 102.448 90.8984 102.561 90.2273L103.681 83.672Z" fill="#FF4B00"/>
<path d="M16.2307 24.046C14.4628 22.2791 12.0662 21.2856 9.56665 21.2837C7.03362 21.2829 4.60368 22.287 2.81015 24.0757C1.01663 25.8645 0.00596123 28.2917 0 30.8247V85.1714C0.00623059 87.7042 1.01669 90.1313 2.8099 91.9201C4.60312 93.7089 7.03278 94.7134 9.56565 94.7134C12.0651 94.7108 14.4614 93.7176 16.2297 91.9512L24.2321 84.045V31.9481L16.2307 24.046ZM23.9476 77.7451L12.9375 88.6212C12.2575 89.2933 11.3937 89.7493 10.4551 89.9317C9.51647 90.1141 8.54494 90.0147 7.66266 89.6461C6.78039 89.2775 6.02686 88.6563 5.49692 87.8604C4.96698 87.0645 4.68447 86.1297 4.68467 85.1735V30.8267C4.68447 29.8706 4.96698 28.9357 5.49692 28.1399C6.02686 27.344 6.78039 26.7227 7.66266 26.3541C8.54494 25.9856 9.51647 25.8861 10.4551 26.0685C11.3937 26.2509 12.2575 26.7069 12.9375 27.3791L23.9476 38.2551V77.7451Z" fill="#FF4B00"/>
<path d="M115.875 0H48.0201C41.6381 0.00758149 35.5197 2.54625 31.0071 7.0591C26.4944 11.5719 23.9559 17.6905 23.9486 24.0725V31.95V84.0469V91.9245C23.9556 98.3066 26.4941 104.425 31.0068 108.938C35.5195 113.451 41.638 115.99 48.0201 115.997H115.875C122.257 115.99 128.376 113.451 132.889 108.939C137.402 104.426 139.941 98.3068 139.948 91.9245V24.0694C139.939 17.6877 137.401 11.5698 132.888 7.0576C128.375 2.54538 122.257 0.00730919 115.875 0ZM135.263 91.9275C135.263 97.0693 133.22 102 129.584 105.636C125.948 109.272 121.017 111.314 115.875 111.314H48.0201C42.8784 111.314 37.9473 109.272 34.3115 105.636C30.6758 102 28.6333 97.0692 28.6333 91.9275V24.0725C28.6333 18.9308 30.6758 13.9997 34.3115 10.3639C37.9473 6.72817 42.8784 4.68554 48.0201 4.68554H115.875C121.017 4.68554 125.948 6.72808 129.584 10.3638C133.22 13.9995 135.263 18.9307 135.263 24.0725V91.9275Z" fill="#FF4B00"/>
<path d="M79.7275 31.2104L76.731 32.0289L63.7997 35.5512L60.8922 46.4027L86.5012 42.9449L100.239 41.09L111.883 22.4551L79.7275 31.2104Z" fill="#FF4B00"/>
<path d="M86.5013 42.9419L60.8922 46.3998L79.9578 53.5858L91.6205 51.8128L86.5013 42.9419Z" fill="url(#paint0_linear_8098_2421)"/>
<path d="M52.0131 93.5481L78.3792 65.8838L57.5273 72.9674L52.0131 93.5481Z" fill="url(#paint1_linear_8098_2421)"/>
<path d="M91.8191 51.7837L91.6237 51.8134L79.9608 53.5864L61.9919 56.3169L57.5303 72.9681L78.3822 65.8845L96.3736 59.7728L91.8191 51.7837Z" fill="#FF4B00"/>
<path d="M174.428 88.3668H171.948V78.8408H174.428V88.3668Z" fill="#FF4B00"/>
<path d="M186.908 88.3668H184.445V81.2403L181.462 86.7375L178.474 81.2403V88.3668H176.011V78.8408H179.062L181.559 83.534L184.166 78.8408H186.917V88.3668H186.908Z" fill="#FF4B00"/>
<path d="M197.809 88.3666H190.856C190.412 88.3666 190.035 88.3201 189.718 88.2227C189.401 88.1296 189.147 87.9688 188.952 87.7488C188.757 87.5287 188.614 87.2367 188.516 86.8728C188.423 86.5088 188.372 86.0518 188.372 85.5058V84.5283C188.372 83.9908 188.419 83.5422 188.508 83.1783C188.597 82.8144 188.741 82.5224 188.935 82.3023C189.13 82.0823 189.384 81.9214 189.701 81.8283C190.019 81.7352 190.399 81.6845 190.856 81.6845H195.313V81.2401C195.313 80.5969 195.025 80.2752 194.445 80.2752H188.677V78.8364H195.347C195.799 78.8364 196.18 78.883 196.493 78.9803C196.802 79.0734 197.056 79.2342 197.251 79.4543C197.446 79.6743 197.589 79.9663 197.678 80.3303C197.767 80.6942 197.814 81.1428 197.814 81.6802V88.3624L197.809 88.3666ZM195.313 86.932V83.1233H191.694C191.136 83.1233 190.856 83.3899 190.856 83.9274V86.2168C190.856 86.6908 191.132 86.9278 191.677 86.9278H195.313V86.932Z" fill="#FF4B00"/>
<path d="M208.757 88.2734C208.757 88.7981 208.715 89.2467 208.622 89.6064C208.533 89.9703 208.389 90.2623 208.186 90.4824C207.987 90.7024 207.729 90.8633 207.42 90.9648C207.111 91.0664 206.726 91.1129 206.273 91.1129H200.209V89.6614H205.486C206.002 89.6614 206.261 89.4033 206.261 88.887V88.3664H201.792C200.886 88.3664 200.247 88.1718 199.879 87.7824C199.511 87.3931 199.324 86.7626 199.324 85.8866V81.3542C199.324 80.9226 199.363 80.5502 199.443 80.2328C199.523 79.9154 199.655 79.6572 199.837 79.4499C200.018 79.2425 200.268 79.0902 200.577 78.9929C200.886 78.8913 201.28 78.8447 201.754 78.8447H208.753V88.2776L208.757 88.2734ZM206.261 80.2793H202.579C202.05 80.2793 201.787 80.5375 201.787 81.0538V86.1405C201.787 86.6695 202.05 86.9318 202.579 86.9318H206.261V80.2793Z" fill="#FF4B00"/>
<path d="M210.277 81.435C210.277 80.961 210.323 80.559 210.412 80.2247C210.501 79.8946 210.645 79.6237 210.839 79.4206C211.034 79.2132 211.288 79.0693 211.597 78.9762C211.91 78.8874 212.291 78.8408 212.744 78.8408H217.23C217.682 78.8408 218.063 78.8874 218.376 78.9762C218.685 79.0651 218.943 79.2132 219.142 79.4206C219.341 79.6279 219.485 79.8946 219.578 80.2247C219.667 80.5547 219.714 80.961 219.714 81.435V85.7642C219.714 86.2382 219.667 86.6402 219.578 86.9745C219.489 87.3046 219.341 87.5754 219.142 87.7785C218.943 87.9859 218.685 88.134 218.376 88.2271C218.063 88.3202 217.682 88.371 217.23 88.371H212.744C212.291 88.371 211.91 88.3245 211.597 88.2271C211.284 88.1298 211.034 87.9817 210.839 87.7785C210.645 87.5712 210.501 87.3046 210.412 86.9745C210.323 86.6444 210.277 86.2382 210.277 85.7642V81.435ZM217.225 81.0541C217.225 80.5378 216.967 80.2797 216.451 80.2797H213.527C213.002 80.2797 212.735 80.5378 212.735 81.0541V86.1408C212.735 86.6698 212.998 86.9322 213.527 86.9322H216.451C216.967 86.9322 217.225 86.6698 217.225 86.1408V81.0541Z" fill="#FF4B00"/>
<path d="M161.64 82.0695C162.27 82.0695 162.757 82.298 163.108 82.7551C163.459 83.2121 163.633 83.8512 163.633 84.6721C163.633 85.4931 163.455 86.1406 163.1 86.6019C162.744 87.0631 162.249 87.2917 161.618 87.2917C160.988 87.2917 160.484 87.0631 160.133 86.6019H160.061L159.866 87.1986H159.062V80.106H160.133V81.7945C160.133 81.9172 160.129 82.1034 160.116 82.3488C160.103 82.5943 160.095 82.7509 160.091 82.8186H160.137C160.476 82.3192 160.979 82.0653 161.644 82.0653L161.64 82.0695ZM161.36 82.9413C160.929 82.9413 160.62 83.0683 160.429 83.3222C160.239 83.5761 160.142 83.9993 160.133 84.596V84.6679C160.133 85.2815 160.23 85.7259 160.425 86.001C160.62 86.276 160.937 86.4114 161.377 86.4114C161.758 86.4114 162.046 86.2633 162.241 85.9586C162.435 85.6582 162.533 85.2223 162.533 84.6552C162.533 83.5084 162.139 82.9371 161.356 82.9371L161.36 82.9413Z" fill="#FF4B00"/>
<path d="M164.111 82.1585H165.279L166.303 85.015C166.46 85.4213 166.561 85.8064 166.612 86.1619H166.65C166.68 85.9926 166.726 85.7937 166.798 85.5525C166.87 85.3155 167.255 84.1814 167.958 82.1543H169.117L166.959 87.8673C166.566 88.9168 165.914 89.4416 165 89.4416C164.763 89.4416 164.53 89.4162 164.306 89.3654V88.519C164.466 88.5571 164.653 88.574 164.856 88.574C165.372 88.574 165.736 88.2736 165.943 87.6769L166.13 87.2029L164.107 82.1628L164.111 82.1585Z" fill="#FF4B00"/>
<path d="M177.905 42.2837H169.933L169.995 41.9369C170.274 40.9354 170.865 40.0486 171.681 39.4049C172.498 38.7612 173.498 38.394 174.537 38.3562H187.745L188.735 32.7437H171.596C169.322 32.8252 167.142 33.6712 165.409 35.1449C163.676 36.6186 162.491 38.6338 162.045 40.8646L161.794 42.2857L160.805 47.8981L157.55 66.3521H165.69L168.752 48.9846L168.943 47.8981H186.061L187.05 42.2857L177.905 42.2837Z" fill="#FF4B00"/>
<path d="M290.047 32.7417L284.113 66.4186H292.252L298.185 32.7417H290.047Z" fill="#FF4B00"/>
<path d="M248.747 42.2839L248.998 40.8629C249.228 39.8719 249.227 38.8413 248.994 37.8509C248.762 36.8605 248.304 35.937 247.658 35.1518C247.011 34.3665 246.192 33.7408 245.265 33.3228C244.337 32.9049 243.326 32.7061 242.309 32.7419H219.559L218.569 38.3543H237.373C237.865 38.3372 238.354 38.4335 238.803 38.6358C239.252 38.8381 239.647 39.1409 239.96 39.5209C240.273 39.9008 240.494 40.3477 240.607 40.8268C240.719 41.3059 240.72 41.8045 240.609 42.2839H223.192C220.917 42.3647 218.737 43.2103 217.004 44.6841C215.27 46.1579 214.084 48.1736 213.638 50.4049L212.246 58.2978C212.016 59.2888 212.017 60.3195 212.25 61.31C212.482 62.3004 212.94 63.2241 213.586 64.0093C214.233 64.7946 215.052 65.4203 215.98 65.8382C216.907 66.256 217.919 66.4546 218.935 66.4187H244.491L245.482 60.8063L247.758 47.8964L248.747 42.2839ZM239.427 48.9829L237.342 60.8063H223.854C223.145 60.8342 222.447 60.6226 221.873 60.2056C221.298 59.7886 220.881 59.1904 220.688 58.5074H220.705C220.559 57.9761 220.535 57.4186 220.635 56.8767L221.526 51.8259C221.632 51.2454 221.851 50.6913 222.17 50.1951H222.154C222.576 49.5138 223.16 48.9474 223.854 48.5463C224.547 48.1452 225.33 47.9219 226.131 47.8964H239.619L239.427 48.9829Z" fill="#FF4B00"/>
<path d="M198.719 60.8066C198.257 60.8242 197.797 60.7411 197.371 60.563C196.945 60.385 196.562 60.1163 196.25 59.7756C195.938 59.4349 195.704 59.0303 195.564 58.59C195.424 58.1497 195.381 57.6843 195.439 57.2259L196.684 50.1668L199.753 32.7441H191.614L187.112 58.3C186.882 59.291 186.884 60.3216 187.116 61.312C187.349 62.3023 187.806 63.226 188.453 64.0112C189.099 64.7965 189.918 65.4223 190.846 65.8402C191.773 66.2581 192.785 66.4569 193.801 66.4211H208.132L209.121 60.8086H198.72L198.719 60.8066Z" fill="#FF4B00"/>
<path d="M276.365 46.7738H262.876C262.384 46.791 261.895 46.6948 261.446 46.4925C260.998 46.2902 260.601 45.9874 260.289 45.6074C259.976 45.2275 259.755 44.7805 259.642 44.3014C259.53 43.8222 259.53 43.3237 259.641 42.8444L259.743 42.2837C259.959 41.2043 260.532 40.2291 261.371 39.5161C262.21 38.803 263.264 38.3936 264.364 38.3541H283.168L284.158 32.7417H261.409C259.135 32.8226 256.955 33.6682 255.221 35.1417C253.488 36.6153 252.302 38.6306 251.855 40.8617L251.255 44.2664C251.025 45.2574 251.027 46.2879 251.259 47.2783C251.492 48.2686 251.949 49.1921 252.596 49.9773C253.243 50.7624 254.062 51.388 254.989 51.8058C255.917 52.2236 256.928 52.4223 257.945 52.3864H271.432C271.924 52.3689 272.414 52.4649 272.862 52.667C273.311 52.8691 273.707 53.1718 274.02 53.5517C274.333 53.9316 274.555 54.3784 274.667 54.8576C274.779 55.3368 274.78 55.8355 274.668 56.3149L274.566 56.8765C274.351 57.9561 273.778 58.9314 272.939 59.6446C272.1 60.3577 271.045 60.767 269.945 60.8061H248.336L247.346 66.4186H272.902C275.176 66.3375 277.356 65.4916 279.089 64.0179C280.823 62.5442 282.009 60.5288 282.455 58.2976L283.055 54.8948C283.285 53.9037 283.284 52.873 283.051 51.8825C282.819 50.892 282.361 49.9683 281.714 49.183C281.068 48.3977 280.248 47.7719 279.321 47.3542C278.393 46.9364 277.382 46.7378 276.365 46.7738Z" fill="#FF4B00"/>
<path d="M309.411 32.7417L306.938 46.7738H299.64C298.54 46.8129 297.486 47.2219 296.647 47.9349C295.808 48.6478 295.235 49.623 295.019 50.7025L294.722 52.3864L294.03 56.3159C294.245 55.2364 294.819 54.2612 295.658 53.5481C296.496 52.835 297.551 52.4257 298.651 52.3864H302.019C302.511 52.3691 303 52.4652 303.449 52.6674C303.898 52.8696 304.294 53.1725 304.607 53.5525C304.919 53.9324 305.141 54.3794 305.253 54.8586C305.366 55.3378 305.366 55.8364 305.255 56.3159L305.947 52.3864L303.474 66.4186H311.612L317.546 32.7417H309.411Z" fill="#FF4B00"/>
</g>
<defs>
<linearGradient id="paint0_linear_8098_2421" x1="69.1888" y1="39.2485" x2="71.3596" y2="60.9826" gradientUnits="userSpaceOnUse">
<stop offset="0.006" stop-color="#D93500"/>
<stop offset="0.5" stop-color="#D64307"/>
<stop offset="1" stop-color="#FF4B00"/>
</linearGradient>
<linearGradient id="paint1_linear_8098_2421" x1="65.1962" y1="66.0221" x2="65.1962" y2="84.0592" gradientUnits="userSpaceOnUse">
<stop offset="0.006" stop-color="#D93500"/>
<stop offset="0.5" stop-color="#D64307"/>
<stop offset="1" stop-color="#FF4B00"/>
</linearGradient>
<clipPath id="clip0_8098_2421">
<rect width="317.062" height="116" fill="white"/>
</clipPath>
</defs>
</svg>
