<svg width="521" height="120" viewBox="0 0 521 120" fill="none" xmlns="http://www.w3.org/2000/svg">
<g clip-path="url(#clip0_8223_972)">
<path d="M0 0C171.765 0 343.53 0 520.5 0C520.5 39.6 520.5 79.2 520.5 120C348.735 120 176.97 120 0 120C0 80.4 0 40.8 0 0Z" fill="#FEFEFE"/>
<path d="M423.997 26.44C424.492 26.4376 424.987 26.4298 425.481 26.4219C427.211 26.4151 428.792 26.5274 430.486 26.8744C432.487 27.2533 434.423 27.3541 436.456 27.3451C437.031 27.3427 437.606 27.3454 438.181 27.3492C439.604 27.3579 441.028 27.3597 442.451 27.3592C443.665 27.3588 444.88 27.3622 446.094 27.3713C446.66 27.374 447.224 27.371 447.789 27.3679C448.135 27.3701 448.48 27.3726 448.825 27.3755C449.125 27.3754 449.425 27.3754 449.735 27.3753C450.655 27.5252 450.942 27.7673 451.5 28.5C451.802 29.4056 451.806 30.2443 451.813 31.1875C451.82 31.4466 451.82 31.4466 451.828 31.711C451.838 32.9894 451.589 33.8623 451 35C450.283 35.717 449.553 35.5884 448.592 35.6036C448.404 35.6084 448.216 35.6132 448.022 35.6182C447.421 35.6332 446.82 35.6448 446.219 35.6563C445.812 35.6658 445.404 35.6756 444.997 35.6856C443.998 35.7096 442.999 35.7306 442 35.75C442.151 35.9186 442.151 35.9186 442.305 36.0906C443.035 36.922 443.685 37.7009 444.172 38.7032C444.313 38.984 444.313 38.984 444.456 39.2706C445.366 41.5284 445.622 43.5004 445.594 45.9375C445.59 46.4035 445.59 46.4035 445.587 46.879C445.499 52.2062 443.808 56.8882 439.972 60.6794C438.558 62.0026 436.99 62.9193 435.25 63.75C434.957 63.8915 434.664 64.033 434.361 64.1788C429.148 66.4715 422.39 66.9624 417 65C415.548 64.4047 414.144 63.719 412.75 63C412.681 63.1425 412.612 63.2849 412.541 63.4317C412.25 64 412.25 64 411.928 64.5215C410.882 66.3133 410.735 67.9535 411 70C411.594 71.4472 412.872 72.3152 414.25 73C415.585 73.38 416.845 73.5882 418.233 73.6495C418.419 73.6592 418.605 73.6689 418.796 73.6788C419.4 73.7098 420.005 73.7377 420.609 73.7657C421.033 73.7869 421.457 73.8083 421.88 73.8297C424.294 73.9488 426.708 74.0305 429.124 74.0851C436.124 74.2443 442.892 74.9273 448 80.25C450.68 83.5094 451.522 86.8225 451.25 91C450.508 96.0407 448.152 100.176 444.076 103.26C435.562 108.895 423.993 109.398 414.193 107.565C409.245 106.536 404.338 104.591 401.328 100.308C400.318 98.5918 399.555 96.7562 399.5 94.75C399.485 94.4752 399.469 94.2003 399.453 93.917C399.316 89.7411 400.609 86.2965 403.375 83.1719C403.747 82.7781 404.122 82.3873 404.5 82C404.667 81.8263 404.834 81.6526 405.006 81.4737C405.651 80.8139 406.229 80.2643 407 79.75C407 79.585 407 79.42 407 79.25C406.552 78.9227 406.552 78.9227 405.984 78.5938C404.755 77.793 403.851 76.945 403 75.75C402.873 75.5728 402.745 75.3956 402.614 75.2129C401.163 72.7015 401.292 68.957 401.972 66.1963C402.832 63.6103 404.259 61.3651 406.203 59.4629C406.559 59.0069 406.559 59.0069 406.473 58.3965C406.221 57.6644 405.882 57.1338 405.438 56.5C402.551 52.0897 402.106 46.7439 403.149 41.6606C404.251 36.816 406.925 32.5723 411.094 29.7969C415.287 27.3059 419.168 26.4541 423.997 26.44Z" fill="#D87F40"/>
<path d="M202.781 26.172C202.951 26.1724 203.121 26.1729 203.297 26.1733C206.009 26.1855 208.615 26.3314 211.25 27.0001C211.417 27.0417 211.585 27.0832 211.757 27.1261C215.443 28.0762 218.932 29.6573 221.75 32.2501C221.957 32.4344 222.164 32.6188 222.378 32.8087C227.735 37.8296 230.045 45.557 230.282 52.7158C230.463 61.3831 230.463 61.3831 229.5 65.2501C229.428 65.5474 229.428 65.5474 229.354 65.8508C228.275 70.1256 226.611 74.3468 223.75 77.7501C223.56 77.9802 223.37 78.2103 223.175 78.4473C218.768 83.5501 212.393 86.3437 205.755 86.9462C197.859 87.5091 189.907 86.5139 183.709 81.2002C178.514 76.5142 175.666 69.4103 175.25 62.5001C175.201 61.0693 175.193 59.6383 175.19 58.2069C175.188 57.5415 175.18 56.8763 175.172 56.211C175.12 47.7602 177.339 39.5228 183.366 33.3389C188.575 28.2511 195.641 26.1416 202.781 26.172Z" fill="#0B0C0A"/>
<path d="M278.5 27.0001C278.807 27.1064 279.115 27.2128 279.432 27.3223C281.361 28.0178 282.983 28.8465 284.5 30.2501C284.78 30.4918 284.78 30.4918 285.065 30.7384C286.77 32.3009 288.583 34.6571 289 37.0001C289.168 36.8306 289.336 36.6611 289.51 36.4864C294.983 31.0204 300.679 26.1842 308.778 26.1879C312.978 26.2407 316.678 27.3976 320 30.0001C320.178 30.1364 320.355 30.2727 320.538 30.4132C324.672 33.7853 326.327 39.3163 326.929 44.4276C327.197 47.514 327.113 50.6383 327.109 53.7337C327.108 54.6093 327.11 55.4849 327.111 56.3606C327.115 58.4238 327.114 60.487 327.111 62.5502C327.109 64.6769 327.112 66.8036 327.119 68.9303C327.124 70.7631 327.126 72.5958 327.125 74.4286C327.124 75.5206 327.124 76.6125 327.129 77.7044C327.132 78.7272 327.132 79.7499 327.127 80.7727C327.126 81.1481 327.127 81.5235 327.129 81.8989C327.133 82.4102 327.129 82.9215 327.125 83.4328C327.125 83.7191 327.125 84.0053 327.125 84.3003C327 85.0001 327 85.0001 326.549 85.4545C324.965 86.3073 323.238 86.3048 321.484 86.3282C321.295 86.3326 321.107 86.337 320.912 86.3416C319.535 86.3399 318.502 86.0854 317.25 85.5001C316.664 84.6208 316.687 84.2673 316.687 83.2269C316.685 82.7486 316.685 82.7486 316.683 82.2607C316.684 81.9065 316.685 81.5524 316.686 81.1982C316.685 80.8257 316.685 80.4532 316.683 80.0806C316.681 79.2773 316.681 78.474 316.681 77.6706C316.682 76.3966 316.678 75.1226 316.674 73.8486C316.662 70.2252 316.656 66.6019 316.655 62.9785C316.654 60.978 316.649 58.9776 316.641 56.9772C316.636 55.7149 316.635 54.4528 316.638 53.1905C316.639 52.3981 316.635 51.6059 316.631 50.8135C316.629 50.4509 316.63 50.0882 316.632 49.7256C316.657 45.3551 315.834 41.0164 312.859 37.6407C310.771 35.7568 308.299 35.0352 305.549 35.0888C303.867 35.1874 302.471 35.6768 301 36.5001C300.815 36.6029 300.63 36.7057 300.439 36.8116C297.511 38.6194 294.965 41.1428 292.75 43.7501C292.535 43.9329 292.321 44.1158 292.1 44.3042C291.039 45.5957 291.339 47.4446 291.359 49.0265C291.359 49.4139 291.359 49.8012 291.358 50.1886C291.358 51.021 291.361 51.8533 291.367 52.6857C291.377 54.002 291.377 55.3183 291.375 56.6346C291.373 59.9034 291.383 63.1722 291.396 66.441C291.406 68.9829 291.412 71.5247 291.408 74.0667C291.406 75.3752 291.411 76.6835 291.422 77.992C291.427 78.8058 291.426 79.6195 291.423 80.4333C291.423 80.8105 291.426 81.1877 291.431 81.5649C291.47 84.4138 291.47 84.4138 290.923 85.2506C289.556 86.4301 288.026 86.3026 286.328 86.3126C286.005 86.3203 286.005 86.3203 285.676 86.3282C284.181 86.3372 282.865 86.1388 281.5 85.5001C280.824 84.8246 280.937 84.4789 280.935 83.5337C280.934 83.2212 280.932 82.9086 280.93 82.5866C280.931 82.2382 280.931 81.8899 280.932 81.5415C280.931 81.176 280.93 80.8105 280.928 80.445C280.925 79.6561 280.924 78.8672 280.924 78.0783C280.923 76.8275 280.919 75.5767 280.914 74.3259C280.901 71.2156 280.894 68.1053 280.888 64.9951C280.884 62.584 280.878 60.1731 280.867 57.7621C280.862 56.5226 280.86 55.2831 280.861 54.0435C280.86 53.2657 280.857 52.4879 280.852 51.71C280.851 51.3537 280.851 50.9974 280.852 50.6411C280.867 46.0219 280.142 41.3645 277.014 37.7637C275.058 35.8083 272.572 35.2374 269.859 35.1407C265.676 35.2604 262.611 37.9787 259.75 40.7501C259.546 40.9444 259.341 41.1387 259.131 41.3389C258.573 41.8805 258.037 42.438 257.5 43.0001C257.236 43.2566 257.236 43.2566 256.967 43.5183C255.272 45.3399 255.222 47.0362 255.266 49.398C255.266 49.7863 255.264 50.1746 255.262 50.5629C255.26 51.3943 255.264 52.2254 255.273 53.0567C255.287 54.3709 255.286 55.6849 255.284 56.9992C255.282 59.0763 255.29 61.1532 255.301 63.2303C255.322 66.955 255.331 70.6797 255.33 74.4044C255.33 75.7114 255.336 77.0182 255.346 78.3251C255.351 79.1361 255.353 79.9471 255.353 80.7581C255.354 81.1348 255.357 81.5114 255.362 81.888C255.368 82.401 255.367 82.9141 255.366 83.4271C255.368 83.7145 255.37 84.0018 255.371 84.2979C255.25 85.0001 255.25 85.0001 254.799 85.4548C253.215 86.3064 251.488 86.3047 249.734 86.3282C249.451 86.3348 249.451 86.3348 249.162 86.3416C247.786 86.3399 246.754 86.0745 245.5 85.5001C245.079 84.6574 245.217 83.7027 245.22 82.776C245.22 82.5428 245.219 82.3096 245.219 82.0694C245.219 81.2832 245.22 80.4971 245.222 79.7109C245.222 79.1493 245.222 78.5876 245.221 78.026C245.221 76.4971 245.223 74.9683 245.225 73.4394C245.226 71.8432 245.226 70.247 245.227 68.6508C245.227 65.9703 245.229 63.2898 245.231 60.6093C245.233 57.8481 245.235 55.0869 245.236 52.3256C245.236 52.1555 245.236 51.9854 245.236 51.8101C245.237 50.9566 245.237 50.1032 245.237 49.2497C245.24 42.1665 245.244 35.0833 245.25 28.0001C245.56 27.834 245.872 27.6704 246.185 27.5078C246.358 27.4165 246.532 27.3251 246.71 27.2309C247.588 26.8555 248.418 26.8613 249.359 26.8907C249.637 26.8951 249.637 26.8951 249.92 26.8996C251.488 26.9488 253.088 27.0879 254.25 28.2501C254.33 29.0183 254.33 29.0183 254.353 29.9942C254.358 30.1655 254.363 30.3368 254.368 30.5133C254.383 31.061 254.395 31.6086 254.406 32.1563C254.416 32.5274 254.426 32.8985 254.435 33.2696C254.46 34.1797 254.481 35.0899 254.5 36.0001C254.649 35.8328 254.797 35.6656 254.95 35.4933C255.149 35.2716 255.347 35.0498 255.551 34.8214C255.746 34.6026 255.941 34.3838 256.142 34.1583C261.687 28.1567 270.35 23.9637 278.5 27.0001Z" fill="#D87F40"/>
<path d="M486.344 26.1874C486.513 26.1873 486.683 26.1871 486.858 26.1869C489.326 26.1908 491.621 26.2824 494 26.9999C494.316 27.0908 494.632 27.1817 494.958 27.2753C500.386 28.9112 504.717 32.3006 507.5 37.2499C508.776 39.6679 509.702 42.0599 510.25 44.7499C510.316 45.0638 510.316 45.0638 510.384 45.384C510.766 47.3899 510.843 49.3701 510.843 51.4049C510.844 51.9568 510.853 52.5082 510.862 53.06C510.864 53.4166 510.865 53.7732 510.865 54.1298C510.867 54.4472 510.869 54.7646 510.872 55.0916C510.72 56.2268 510.389 56.8044 509.75 57.7499C508.536 58.6604 507.472 58.7813 505.985 58.78C505.674 58.7803 505.363 58.7807 505.043 58.781C504.7 58.7802 504.356 58.7793 504.013 58.7783C503.651 58.7783 503.289 58.7783 502.926 58.7784C501.943 58.7785 500.961 58.777 499.978 58.7753C498.95 58.7737 497.923 58.7736 496.896 58.7733C494.951 58.7725 493.005 58.7705 491.06 58.7679C488.846 58.7652 486.631 58.7638 484.416 58.7625C479.861 58.7599 475.306 58.7555 470.75 58.7499C470.823 59.7084 470.899 60.6667 470.975 61.6249C470.995 61.8944 471.016 62.1638 471.037 62.4413C471.41 67.0787 472.893 71.8423 476.5 74.9999C480.066 77.7032 484.111 78.6451 488.531 78.5937C488.848 78.5913 489.164 78.589 489.49 78.5866C494.05 78.5138 498.136 77.6357 502.363 75.9658C502.716 75.8274 502.716 75.8274 503.075 75.6862C503.537 75.5032 503.997 75.3165 504.455 75.1257C506.577 74.2757 506.577 74.2757 507.75 74.7499C508.61 75.7115 508.61 76.7197 508.578 77.9531C508.575 78.1309 508.572 78.3087 508.569 78.4919C508.489 81.4474 508.489 81.4474 507.516 82.5468C503.93 84.6687 499.952 85.6646 495.89 86.3854C495.45 86.4642 495.011 86.548 494.573 86.6359C492.438 87.04 490.336 87.0997 488.172 87.0937C487.986 87.0936 487.8 87.0934 487.609 87.0933C479.815 87.0672 472.888 85.1751 467.159 79.6835C463.668 76.0417 461.65 71.1621 460.75 66.2499C460.702 66.0018 460.654 65.7537 460.605 65.498C458.975 56.5157 459.645 46.5263 464.25 38.4999C464.394 38.246 464.539 37.9921 464.688 37.7304C465.694 36.0622 466.886 34.6377 468.25 33.2499C468.453 33.0411 468.655 32.8323 468.864 32.6171C472.401 29.1811 476.786 27.5784 481.5 26.4999C481.691 26.4554 481.883 26.411 482.08 26.3651C483.484 26.1238 484.923 26.1887 486.344 26.1874Z" fill="#D88040"/>
<path d="M46.3789 30.2491C50.6151 33.9081 52.2537 38.5322 52.75 44.0001C52.816 45.3932 52.8212 46.7831 52.8187 48.1775C52.8198 48.5808 52.8211 48.9841 52.8226 49.3874C52.8259 50.4698 52.8261 51.5522 52.8254 52.6347C52.8252 53.5407 52.8264 54.4467 52.8276 55.3527C52.8303 57.4881 52.8305 59.6235 52.829 61.7588C52.8274 63.9611 52.8305 66.1632 52.8358 68.3655C52.8402 70.2609 52.8418 72.1562 52.8409 74.0517C52.8405 75.1819 52.8411 76.3121 52.8446 77.4423C52.8478 78.502 52.8473 79.5617 52.844 80.6214C52.8434 81.0105 52.8441 81.3996 52.8462 81.7887C52.8488 82.3188 52.8468 82.8486 52.8436 83.3786C52.8436 83.6754 52.8437 83.9722 52.8437 84.2779C52.75 85.0001 52.75 85.0001 52.4103 85.4581C51.1539 86.3521 49.7426 86.3343 48.2657 86.3282C47.9759 86.3342 47.9759 86.3342 47.6802 86.3404C46.3544 86.3415 45.4231 86.1286 44.25 85.5001C43.9354 84.8709 43.948 84.3968 43.9209 83.6934C43.9052 83.3067 43.9052 83.3067 43.8892 82.9122C43.8794 82.6421 43.8695 82.3721 43.8594 82.0938C43.8486 81.8218 43.8378 81.5498 43.8267 81.2696C43.8001 80.5964 43.7746 79.9233 43.75 79.2501C43.5741 79.4225 43.3981 79.5949 43.2168 79.7725C37.9861 84.7931 31.8207 87.1548 24.5704 87.0704C20.3178 86.9415 16.3667 85.6159 13 83.0001C12.8408 82.8821 12.6816 82.7642 12.5176 82.6426C10.4211 80.9934 9.24414 78.6739 8.25004 76.2501C8.16142 76.048 8.07279 75.8459 7.98149 75.6378C7.33757 73.8636 7.43659 71.9707 7.42191 70.1094C7.41466 69.8096 7.40741 69.5097 7.39994 69.2007C7.37127 65.114 8.86215 61.5229 11.6621 58.5391C18.5595 52.2146 28.2011 51.6445 37.0625 51.7188C37.5938 51.7213 38.125 51.7236 38.6563 51.7256C39.9376 51.7311 41.2188 51.7396 42.5 51.7501C42.6632 44.3439 42.6632 44.3439 39.6875 37.8282C35.7019 34.4766 31.2849 34.3437 26.25 34.7501C21.9781 35.3384 18.0621 37.368 14.3453 39.4499C12.5316 40.4432 12.5316 40.4432 11.5 40.2501C10.6672 39.6076 10.3165 38.9901 10 38.0001C9.67377 34.3656 9.67377 34.3656 10.3438 32.9844C13.3909 29.5746 18.4502 28.0763 22.75 27.0001C22.9266 26.9552 23.1031 26.9104 23.285 26.8642C30.4399 25.1397 40.3893 25.4964 46.3789 30.2491Z" fill="#0C0D0B"/>
<path d="M381.781 31.0313C385.228 34.2554 386.692 38.6379 387 43.25C387.035 44.6299 387.032 46.0092 387.028 47.3893C387.028 47.8035 387.028 48.2176 387.029 48.6318C387.029 49.7494 387.027 50.8669 387.025 51.9845C387.024 53.155 387.024 54.3254 387.023 55.4959C387.023 57.7093 387.021 59.9227 387.018 62.1361C387.015 64.6573 387.014 67.1785 387.013 69.6997C387.01 74.8831 387.006 80.0666 387 85.25C385.379 86.0743 384.221 86.3001 382.406 86.3125C382.128 86.3203 382.128 86.3203 381.844 86.3282C380.629 86.3367 379.799 86.1782 378.75 85.5C378.2 84.6743 378.19 84.4314 378.201 83.4737C378.204 83.1051 378.204 83.1051 378.206 82.729C378.212 82.345 378.212 82.345 378.219 81.9532C378.221 81.6942 378.223 81.4353 378.226 81.1685C378.232 80.5289 378.24 79.8895 378.25 79.25C378.119 79.3651 377.987 79.4802 377.852 79.5988C377.49 79.9161 377.127 80.2332 376.765 80.5501C376.392 80.8759 376.02 81.2024 375.648 81.5293C370.465 85.8811 364.422 87.4616 357.75 87C352.816 86.5184 348.226 84.4803 344.998 80.6553C343.872 79.1367 343.126 77.5284 342.5 75.75C342.42 75.5309 342.34 75.3117 342.257 75.086C341.026 71.1015 341.439 66.4385 343.188 62.7032C345.707 57.96 349.971 55.1163 355 53.5C360.285 51.9047 365.605 51.6396 371.094 51.7032C371.671 51.7069 372.248 51.7103 372.825 51.7134C374.217 51.7215 375.608 51.734 377 51.75C376.972 50.6926 376.94 49.6354 376.906 48.5782C376.895 48.1361 376.895 48.1361 376.883 47.6851C376.763 44.0322 376.478 40.5715 374.011 37.6758C371.303 35.1763 367.9 34.6099 364.328 34.6407C363.865 34.6435 363.865 34.6435 363.392 34.6464C361.017 34.6891 358.992 34.9657 356.75 35.75C356.291 35.896 356.291 35.896 355.823 36.0449C353.402 36.8545 351.192 38.026 348.973 39.2813C348.739 39.4099 348.505 39.5384 348.264 39.6709C348.056 39.7884 347.849 39.9058 347.635 40.0268C346.825 40.3115 346.32 40.2235 345.5 40C344.379 38.8404 344.44 37.5612 344.422 36.0469C344.415 35.8482 344.407 35.6495 344.4 35.4449C344.385 34.0839 344.595 33.3269 345.5 32.25C353.638 23.9389 373.211 23.8241 381.781 31.0313Z" fill="#D87F40"/>
<path d="M75.4662 27.106C75.9823 27.1095 76.4972 27.101 77.0132 27.0914C77.3411 27.0919 77.669 27.0924 78.0068 27.0929C78.4544 27.0926 78.4544 27.0926 78.9111 27.0923C79.743 27.2488 80.2953 27.4431 80.9337 28.0076C81.6863 29.1796 81.4458 30.7432 81.4274 32.0898C81.4278 32.4603 81.4288 32.8309 81.4305 33.2014C81.4328 33.9989 81.4304 34.7963 81.4243 35.5938C81.4148 36.8583 81.4163 38.1228 81.4192 39.3874C81.4234 41.8479 81.4164 44.3083 81.4083 46.7689C81.3987 49.8906 81.3947 53.0123 81.3996 56.1341C81.4013 57.3873 81.3978 58.6403 81.39 59.8934C81.3861 60.6792 81.3864 61.4649 81.3877 62.2507C81.3875 62.6106 81.3855 62.9706 81.3816 63.3305C81.339 67.4453 82.1742 72.1564 85.1094 75.2657C85.3982 75.52 85.6951 75.7654 86 76.0001C86.2267 76.1756 86.2267 76.1756 86.458 76.3546C88.7801 77.9673 91.4884 78.2653 94.25 78.0001C96.491 77.5759 98.3948 76.8217 100.25 75.5001C100.438 75.368 100.625 75.2359 100.818 75.0997C102.979 73.4704 104.911 71.4811 106.75 69.5001C106.963 69.3202 107.176 69.1402 107.395 68.9548C108.459 67.6559 108.166 65.8097 108.149 64.2197C108.149 63.832 108.15 63.4442 108.152 63.0565C108.154 62.2232 108.153 61.3901 108.148 60.5569C108.141 59.2395 108.143 57.9223 108.146 56.605C108.151 54.0474 108.147 51.4898 108.142 48.9322C108.136 45.6748 108.132 42.4174 108.139 39.16C108.142 37.8502 108.139 36.5405 108.133 35.2307C108.13 34.4167 108.131 33.6027 108.133 32.7886C108.133 32.4109 108.132 32.0332 108.128 31.6555C108.124 31.1401 108.125 30.6252 108.129 30.1098C108.128 29.8214 108.127 29.533 108.127 29.2359C108.277 28.3407 108.548 28.0561 109.25 27.5001C110.382 26.9339 111.944 27.1926 113.187 27.1876C113.666 27.1799 113.666 27.1799 114.154 27.172C114.617 27.1701 114.617 27.1701 115.09 27.1681C115.372 27.1657 115.654 27.1634 115.945 27.161C116.904 27.2671 117.8 27.5499 118.5 28.2501C118.527 28.9779 118.538 29.6999 118.538 30.4279C118.54 30.7748 118.54 30.7748 118.542 31.1287C118.545 31.9098 118.547 32.6909 118.548 33.4721C118.55 34.0296 118.552 34.5871 118.554 35.1447C118.561 36.9809 118.565 38.8172 118.568 40.6534C118.57 41.2844 118.571 41.9153 118.572 42.5462C118.578 45.1697 118.583 47.7932 118.585 50.4167C118.586 51.0979 118.587 51.7791 118.588 52.4603C118.588 52.6296 118.588 52.7989 118.588 52.9733C118.591 55.7169 118.6 58.4604 118.61 61.204C118.621 64.0188 118.626 66.8337 118.628 69.6486C118.629 71.2298 118.632 72.811 118.64 74.3922C118.647 75.8792 118.649 77.3662 118.646 78.8533C118.646 79.3999 118.648 79.9466 118.652 80.4932C118.658 81.238 118.656 81.9823 118.652 82.7271C118.655 82.9448 118.659 83.1626 118.663 83.3869C118.643 84.8474 118.643 84.8474 117.909 85.6307C116.585 86.373 115.122 86.3021 113.641 86.3126C113.369 86.3204 113.369 86.3204 113.091 86.3282C111.794 86.3376 110.896 86.1204 109.75 85.5001C109.153 84.6041 109.174 84.157 109.146 83.0909C109.137 82.7663 109.127 82.4416 109.117 82.1071C109.109 81.7641 109.101 81.4212 109.094 81.0782C109.084 80.7324 109.074 80.3865 109.064 80.0406C109.041 79.1938 109.019 78.347 109 77.5001C108.803 77.7057 108.606 77.9113 108.403 78.1232C103.701 82.9704 98.0267 86.9385 91.0395 87.0733C85.6611 87.1091 81.0551 86.0069 77 82.2501C76.8289 82.0925 76.6577 81.9349 76.4814 81.7726C70.5397 75.7141 70.8791 66.5127 70.8828 58.6506C70.8828 57.7998 70.8807 56.9491 70.8786 56.0983C70.8738 54.0936 70.873 52.089 70.8747 50.0843C70.8764 48.0197 70.8706 45.9551 70.8614 43.8905C70.8538 42.1088 70.8509 40.3272 70.8519 38.5455C70.8524 37.485 70.851 36.4246 70.8449 35.3641C70.8393 34.3712 70.8398 33.3785 70.8449 32.3857C70.8457 32.0216 70.8445 31.6576 70.8409 31.2936C70.8364 30.7972 70.8403 30.3008 70.8446 29.8045C70.8444 29.5268 70.8443 29.2491 70.8441 28.963C71 28.2501 71 28.2501 71.5843 27.6613C72.7804 26.9225 74.096 27.0931 75.4662 27.106Z" fill="#0C0D0B"/>
<path d="M214 38.5C217.803 41.8548 219.103 47.4262 219.5 52.25C219.575 53.6297 219.583 55.0094 219.579 56.3909C219.578 56.9996 219.584 57.6081 219.59 58.2168C219.614 63.9391 218.31 70.0014 214.172 74.2187C211.79 76.4654 209.345 77.3927 206.25 78.25C206.078 78.3015 205.906 78.3531 205.728 78.4062C201.846 79.1669 196.681 78.3066 193.378 76.1963C188.964 73.059 187.129 68.5611 186.077 63.4023C185.321 58.6035 185.217 52.9531 186.5 48.25C186.567 47.959 186.633 47.668 186.702 47.3681C187.745 43.1751 189.976 39.4644 193.594 37.0156C199.81 33.3834 208.46 33.7643 214 38.5Z" fill="#FEFEFE"/>
<path d="M168.446 27.5966C169.069 28.0505 169.225 28.2889 169.5 28.9999C169.608 30.1118 169.581 31.2272 169.578 32.3437C169.582 32.6486 169.586 32.9534 169.59 33.2675C169.591 33.5627 169.591 33.8579 169.591 34.1621C169.592 34.4306 169.592 34.6992 169.593 34.9759C169.486 35.8648 169.189 36.476 168.75 37.2499C167.057 37.3306 165.825 37.1001 164.25 36.4999C161.988 35.6735 159.531 35.6544 157.333 36.6699C156.292 37.2591 155.394 37.9576 154.5 38.7499C154.321 38.9088 154.141 39.0677 153.956 39.2314C152.391 40.7077 151.111 42.4036 149.903 44.1777C149.615 44.5864 149.312 44.9849 149.001 45.3756C147.47 47.4083 147.218 49.0016 147.27 51.4941C147.27 51.8599 147.269 52.2257 147.268 52.5915C147.266 53.3729 147.271 54.1538 147.28 54.9351C147.296 56.1707 147.296 57.406 147.295 58.6416C147.294 60.8163 147.305 62.9907 147.32 65.1653C147.341 68.4457 147.354 71.726 147.354 75.0064C147.354 76.2347 147.361 77.4628 147.373 78.6911C147.38 79.4535 147.381 80.2158 147.381 80.9783C147.383 81.3318 147.386 81.6854 147.391 82.0389C147.399 82.5211 147.398 83.0034 147.396 83.4857C147.398 83.7556 147.4 84.0255 147.402 84.3035C147.198 85.2395 146.789 85.4916 146 85.9999C144.832 86.4298 143.525 86.306 142.297 86.3124C141.932 86.3202 141.932 86.3202 141.56 86.3281C140.089 86.336 139.046 86.2126 137.75 85.4999C137.088 84.8383 137.189 84.3539 137.182 83.4536C137.183 83.2347 137.184 83.0159 137.185 82.7904C137.184 82.5588 137.183 82.3271 137.182 82.0885C137.179 81.3075 137.18 80.5266 137.181 79.7456C137.18 79.1876 137.179 78.6297 137.177 78.0717C137.174 76.5526 137.174 75.0336 137.175 73.5145C137.175 72.2482 137.174 70.982 137.172 69.7158C137.17 66.5586 137.17 63.4015 137.171 60.2444C137.173 57.5007 137.17 54.757 137.165 52.0133C137.16 49.1981 137.158 46.383 137.159 43.5678C137.16 41.9865 137.159 40.4052 137.155 38.8238C137.152 37.3372 137.153 35.8506 137.156 34.3639C137.157 33.8172 137.156 33.2704 137.154 32.7237C137.151 31.9795 137.153 31.2354 137.156 30.4912C137.155 30.2729 137.153 30.0546 137.151 29.8297C137.164 28.3532 137.164 28.3532 137.597 27.8321C138.707 26.9175 139.931 26.9118 141.313 26.9218C141.501 26.9225 141.69 26.9232 141.884 26.9239C143.472 26.9537 145.069 27.0686 146.25 28.2499C146.311 28.8939 146.343 29.513 146.354 30.1581C146.358 30.3461 146.363 30.5341 146.368 30.7277C146.383 31.3288 146.395 31.93 146.406 32.5312C146.416 32.9384 146.426 33.3457 146.436 33.7529C146.46 34.7519 146.481 35.7509 146.5 36.7499C146.664 36.5121 146.827 36.2743 146.996 36.0292C151.934 28.8753 159.517 23.1506 168.446 27.5966Z" fill="#0B0C0A"/>
<path d="M420.844 81.7032C421.318 81.7273 421.792 81.7503 422.267 81.7721C423.188 81.8163 424.109 81.8674 425.029 81.9256C426.016 81.9877 427.003 82.0332 427.991 82.0645C432.161 82.1971 436.389 82.3941 439.538 85.4805C441.012 87.1384 441.162 88.5997 441.096 90.8106C440.816 93.5574 439.56 95.6632 437.469 97.4219C432.529 101.049 424.785 101.15 418.943 100.295C415.853 99.7512 412.579 98.8117 410.594 96.2198C409.245 94.1314 409.172 91.7039 409.636 89.295C410.306 87.3878 411.658 85.7348 413 84.2501C413.257 83.9251 413.257 83.9251 413.519 83.5935C415.683 81.1884 417.816 81.4896 420.844 81.7032Z" fill="#FEFEFD"/>
<path d="M432.563 36.7969C434.309 38.4271 435.214 40.4542 435.75 42.75C435.796 42.9443 435.842 43.1387 435.89 43.3389C436.506 47.0333 435.769 50.8486 433.75 54C431.751 56.5237 429.151 57.7692 426 58.25C422.471 58.5453 419.063 58.0799 416.25 55.75C416.091 55.6188 415.932 55.4877 415.769 55.3525C414.559 54.2515 413.89 52.9912 413.25 51.5C413.161 51.3047 413.073 51.1094 412.981 50.9082C411.871 47.7509 412.174 43.5148 413.5 40.5C414.929 37.5398 416.945 35.7079 420 34.5C424.205 33.1522 429.129 34.0386 432.563 36.7969Z" fill="#FEFEFD"/>
<path d="M485.875 34.1719C486.117 34.1711 486.359 34.1703 486.608 34.1694C490.039 34.1948 493.731 35.0116 496.25 37.5C499.816 41.6082 500.75 45.8767 500.75 51.25C490.85 51.25 480.95 51.25 470.75 51.25C470.75 49.4403 470.813 48.0913 471.281 46.4062C471.337 46.2005 471.393 45.9948 471.451 45.7828C472.217 43.0979 473.414 40.8552 475.25 38.75C475.374 38.5992 475.499 38.4484 475.627 38.293C478.255 35.3617 482.047 34.1082 485.875 34.1719Z" fill="#FEFEFD"/>
<path d="M371.203 58.9687C371.766 58.9712 372.33 58.9735 372.893 58.9755C374.262 58.981 375.631 58.9893 377 58.9999C377.103 60.6351 377.172 62.2694 377.22 63.9071C377.24 64.4621 377.267 65.0169 377.302 65.5712C377.599 70.4112 377.599 70.4112 376.138 72.2469C375.178 73.2758 374.124 74.1567 373 74.9999C372.629 75.2954 372.629 75.2954 372.251 75.5969C370.809 76.7082 369.15 77.4962 367.5 78.2499C367.201 78.3867 367.201 78.3867 366.896 78.5263C363.815 79.5935 359.679 79.3341 356.75 77.9999C356.001 77.5702 355.376 77.094 354.75 76.4999C354.612 76.3687 354.473 76.2376 354.331 76.1024C352.509 74.1813 352.159 72.1816 352.125 69.6093C352.12 69.3877 352.116 69.1661 352.111 68.9378C352.134 66.5365 353.098 64.4873 354.75 62.7499C356.798 61.0133 359.127 60.0201 361.75 59.4999C361.946 59.4571 362.143 59.4143 362.345 59.3703C365.275 58.8234 368.235 58.9455 371.203 58.9687Z" fill="#FEFEFD"/>
<path d="M32.2217 59.2011C32.5174 59.2018 32.8132 59.2025 33.1179 59.2032C34.0526 59.206 34.9872 59.2123 35.9219 59.2186C36.5597 59.2212 37.1976 59.2234 37.8354 59.2255C39.3903 59.231 40.9451 59.2393 42.5 59.2499C42.5574 60.8773 42.5966 62.5045 42.6236 64.1327C42.6348 64.6856 42.6502 65.2385 42.6697 65.7912C42.8487 70.9789 42.8487 70.9789 41.4551 72.5468C40.8343 73.075 40.8343 73.075 40.25 73.4999C39.9967 73.7377 39.7453 73.9775 39.4971 74.2206C35.1247 77.8844 30.9613 79.3169 25.25 78.9999C22.9077 78.6862 20.8563 77.3539 19.3906 75.5155C18.7318 74.5571 18.3505 73.6067 18 72.4999C17.9542 72.3575 17.9085 72.215 17.8613 72.0683C17.3972 69.6989 17.4274 66.8212 18.75 64.7499C21.1209 61.5195 24.3507 60.0463 28.2157 59.357C29.5507 59.1747 30.8765 59.1887 32.2217 59.2011Z" fill="#FDFDFD"/>
</g>
<defs>
<clipPath id="clip0_8223_972">
<rect width="520.5" height="120" fill="white"/>
</clipPath>
</defs>
</svg>
