<svg width="557" height="120" viewBox="0 0 557 120" fill="none" xmlns="http://www.w3.org/2000/svg">
<path d="M55.4128 13.9875C56.1159 14.3626 56.8238 14.7278 57.5329 15.0914C59.9522 16.3325 62.338 17.6006 64.6593 19.0175C65.1303 19.3034 65.6019 19.5885 66.0737 19.8732C66.1896 19.9434 66.3055 20.0135 66.4249 20.0858C67.1793 20.5392 67.9437 20.9692 68.7168 21.3898C72.1466 23.2581 75.3729 25.4536 78.6166 27.6231C82.8412 30.4576 82.8412 30.4576 87.1712 33.126C89.1254 34.2763 90.9628 35.574 92.8051 36.8938C93.3631 37.2909 93.9219 37.6869 94.481 38.0824C94.6137 38.1766 94.7465 38.2708 94.8832 38.3679C95.6051 38.8782 96.3339 39.3739 97.0747 39.8563C100.649 42.1865 104.06 44.7077 106.619 48.1472C106.872 48.4862 107.129 48.8216 107.386 49.1571C110.175 52.8527 111.837 57.5785 111.192 62.2413C109.495 71.5819 101.862 78.2901 94.5449 83.5718C94.1878 83.8297 93.832 84.0893 93.4766 84.3498C91.9116 85.4856 90.3049 86.5561 88.693 87.624C87.5515 88.3808 86.418 89.1473 85.2912 89.9257C83.5117 91.1538 81.7037 92.3022 79.8405 93.3986C79.0992 93.8363 78.3741 94.2943 77.6516 94.7622C75.4313 96.1983 73.1194 97.4574 70.798 98.7194C70.0088 99.1499 69.2271 99.5924 68.4479 100.041C67.2009 100.758 65.9394 101.445 64.6712 102.124C64.4583 102.238 64.2454 102.352 64.0261 102.47C63.4133 102.799 62.8002 103.127 62.187 103.455C62.0212 103.544 61.8554 103.632 61.6846 103.724C60.9017 104.142 60.1183 104.56 59.3344 104.976C59.41 106.01 60.0168 106.71 60.6062 107.52C60.7046 107.659 60.803 107.797 60.9045 107.94C61.9074 109.339 62.8924 110.538 64.3027 111.537C64.4909 111.672 64.4909 111.672 64.6828 111.81C67.8951 114.084 71.4099 115.447 75.1162 116.689C76.2154 117.057 77.2972 117.425 78.3518 117.908C78.3518 118.034 78.3518 118.159 78.3518 118.288C76.9284 118.303 75.505 118.313 74.0815 118.32C73.5989 118.323 73.1163 118.327 72.6337 118.331C69.7942 118.36 67.0613 118.321 64.2789 117.718C63.9339 117.644 63.9339 117.644 63.582 117.568C62.9589 117.423 62.3413 117.266 61.7235 117.1C61.5058 117.042 61.2881 116.984 61.0638 116.924C55.9017 115.524 51.2572 113.474 47.3534 109.731C47.1811 109.572 47.0087 109.414 46.8312 109.251C42.739 105.375 41.7951 100.565 41.6025 95.1306C41.5727 94.0147 41.5647 92.8991 41.565 91.7829C41.5648 91.5853 41.5646 91.3877 41.5644 91.1842C41.5695 87.6978 41.8843 84.4299 42.5991 81.0143C42.6848 80.5772 42.7704 80.1402 42.8561 79.7031C43.5137 76.4686 44.4393 73.3133 45.4517 70.1743C45.4937 70.044 45.5357 69.9136 45.579 69.7793C46.9792 65.448 48.6011 61.2342 50.3962 57.0523C50.4594 56.9048 50.5226 56.7573 50.5877 56.6054C51.5867 54.2755 52.6016 51.9529 53.6292 49.6355C53.6905 49.4973 53.7517 49.3591 53.8149 49.2167C55.5636 45.2781 57.4188 41.3963 59.3166 37.5276C60.0047 36.1233 60.6782 34.712 61.3437 33.2968C61.7812 32.3731 62.2503 31.4825 62.771 30.6027C62.9891 30.2197 62.9891 30.2197 62.9477 29.6672C62.7217 29.5679 62.4957 29.4687 62.2628 29.3664C59.4027 28.1003 56.5812 26.7546 53.8365 25.2528C52.0868 24.2988 50.283 23.4694 48.4707 22.6427C48.3316 22.5789 48.1926 22.5151 48.0493 22.4494C47.647 22.2653 47.244 22.0827 46.8408 21.9005C46.7207 21.8455 46.6006 21.7905 46.4768 21.7339C45.7012 21.3864 44.9395 21.1352 44.1205 20.9192C43.2426 22.6368 42.4295 24.3792 41.6363 26.1371C41.5741 26.2748 41.512 26.4124 41.4479 26.5543C41.3845 26.6949 41.321 26.8355 41.2556 26.9803C41.1918 27.1215 41.1281 27.2627 41.0624 27.4082C40.9335 27.6938 40.8046 27.9794 40.6759 28.265C40.3045 29.0877 39.9276 29.9075 39.5451 30.7251C38.1083 33.8223 36.8363 36.9837 35.5761 40.156C35.4349 40.5113 35.2934 40.8665 35.1519 41.2217C33.4526 45.4948 31.8393 49.8047 30.4234 54.1811C30.2136 54.8291 30.0031 55.4768 29.7903 56.1238C27.8919 61.9083 26.5219 67.6699 25.4239 73.6569C25.3822 73.8838 25.3405 74.1107 25.2975 74.3445C24.5833 78.2511 24.0767 81.9735 24.0927 85.9469C24.0932 86.2153 24.0932 86.2153 24.0938 86.489C24.1186 94.1292 25.3851 101.788 30.4279 107.829C30.5556 107.99 30.6833 108.15 30.8149 108.316C32.721 110.596 35.3917 112.113 37.8738 113.689C38.3759 114.011 38.8712 114.342 39.3661 114.675C38.7307 115.433 37.9975 115.733 37.0922 116.066C36.8697 116.15 36.8697 116.15 36.6427 116.236C36.3283 116.355 36.0135 116.472 35.6984 116.589C35.2259 116.764 34.7548 116.943 34.2838 117.122C32.4507 117.813 30.6271 118.415 28.7163 118.859C28.5358 118.901 28.3554 118.943 28.1694 118.986C24.8041 119.684 20.9585 119.549 17.6862 118.479C17.5595 118.438 17.4327 118.397 17.3021 118.355C14.3178 117.362 12.2328 115.517 10.2271 113.161C9.99933 112.9 9.76373 112.645 9.52135 112.398C3.75188 106.392 2.96458 95.893 2.39237 88.0061C2.29924 86.7301 2.19341 85.4553 2.08524 84.1804C2.03313 83.5586 1.98117 82.9368 1.92929 82.315C1.89595 81.9178 1.86225 81.5206 1.82811 81.1235C1.35358 75.577 1.2972 70.0316 1.30746 64.4691C1.30789 64.1591 1.30831 63.8491 1.30873 63.5391C1.32033 55.8541 1.61428 48.2304 2.1104 40.5622C2.22769 38.7464 2.33538 36.9302 2.43216 35.1132C3.57543 13.7678 3.57543 13.7678 10.8771 6.82996C23.605 -4.08584 43.319 7.52374 55.4128 13.9875Z" fill="#1957A5"/>
<path d="M310.958 38.5811C311.16 38.5805 311.361 38.58 311.569 38.5794C311.791 38.5798 312.012 38.5802 312.24 38.5806C312.473 38.5803 312.706 38.5799 312.947 38.5796C313.588 38.5789 314.23 38.5791 314.871 38.5797C315.547 38.5802 316.223 38.5797 316.899 38.5794C318.039 38.5791 319.179 38.5795 320.318 38.5804C321.623 38.5814 322.927 38.5811 324.232 38.5801C325.359 38.5792 326.486 38.5791 327.614 38.5796C328.283 38.5799 328.953 38.5799 329.623 38.5793C332.226 38.5772 334.827 38.5914 337.429 38.6818C337.626 38.6881 337.824 38.6944 338.027 38.7008C341.747 38.849 345.031 39.8982 347.668 42.6449C350.602 46.0802 351.091 50.1363 351.089 54.4818C351.09 54.7048 351.091 54.9278 351.091 55.1576C351.093 55.8864 351.094 56.6152 351.094 57.3441C351.094 57.7258 351.095 58.1076 351.095 58.4893C351.097 59.6867 351.097 60.884 351.097 62.0814C351.097 63.3102 351.099 64.539 351.102 65.7678C351.104 66.8295 351.105 67.8911 351.105 68.9528C351.105 69.584 351.106 70.2152 351.108 70.8464C351.11 71.5507 351.109 72.2549 351.108 72.9592C351.109 73.1641 351.11 73.3689 351.111 73.58C351.102 75.7234 350.968 77.7913 349.54 79.4927C346.344 82.3693 341.552 81.8327 337.548 81.8253C337.054 81.8256 336.559 81.8259 336.065 81.8264C335.033 81.8271 334.001 81.8262 332.969 81.8244C331.786 81.8223 330.603 81.823 329.42 81.8251C328.27 81.827 327.12 81.8268 325.969 81.8257C325.485 81.8254 325.002 81.8257 324.518 81.8266C319.109 81.8344 313.824 81.7279 309.63 77.8324C307.963 76.0993 307.146 73.8353 306.751 71.5054C306.708 71.2583 306.665 71.0112 306.62 70.7566C306.294 67.4251 306.658 63.476 308.7 60.7011C311.31 57.6432 314.846 56.5759 318.758 56.2585C319.217 56.2302 319.675 56.2067 320.134 56.1856C320.308 56.1776 320.481 56.1696 320.66 56.1613C322.807 56.0708 324.954 56.0775 327.104 56.0827C327.546 56.083 327.988 56.0833 328.43 56.0835C329.578 56.0842 330.727 56.0861 331.876 56.0882C333.054 56.0902 334.233 56.091 335.411 56.092C337.712 56.094 340.013 56.0972 342.314 56.1013C342.298 55.4117 342.277 54.7225 342.254 54.0331C342.25 53.8404 342.246 53.6477 342.241 53.4492C342.176 51.5958 341.908 49.9928 340.593 48.625C338.807 47.0794 336.504 47.1058 334.263 47.1024C333.991 47.1007 333.719 47.0987 333.448 47.0966C332.714 47.0915 331.981 47.0886 331.247 47.0861C330.479 47.0831 329.711 47.078 328.942 47.0732C327.49 47.0643 326.037 47.0573 324.584 47.051C322.929 47.0437 321.275 47.0343 319.62 47.0247C316.218 47.0051 312.816 46.9884 309.414 46.9729C309.414 44.2743 309.414 41.5757 309.414 38.7954C309.985 38.605 310.361 38.5813 310.958 38.5811ZM316.147 65.0283C315.167 66.463 315.112 67.8774 315.398 69.5561C315.723 70.8254 316.283 71.7916 317.399 72.5097C318.388 73.0317 319.306 73.2401 320.425 73.2424C320.699 73.2436 320.699 73.2436 320.979 73.2448C321.177 73.2447 321.375 73.2447 321.579 73.2446C321.789 73.2452 322 73.2458 322.216 73.2465C322.911 73.2483 323.606 73.2487 324.301 73.2489C324.784 73.2495 325.267 73.2501 325.75 73.2508C326.762 73.2519 327.774 73.2523 328.785 73.2522C329.955 73.2521 331.124 73.2541 332.293 73.2571C333.419 73.2599 334.545 73.2605 335.67 73.2604C336.149 73.2607 336.628 73.2615 337.106 73.263C337.775 73.2648 338.443 73.2643 339.111 73.2631C339.31 73.2642 339.508 73.2653 339.713 73.2664C339.895 73.2656 340.077 73.2648 340.265 73.264C340.502 73.2641 340.502 73.2641 340.743 73.2643C341.233 73.2103 341.525 73.1129 341.933 72.8366C342.31 72.2806 342.361 71.8312 342.357 71.169C342.357 70.9901 342.357 70.8113 342.357 70.6269C342.355 70.4354 342.353 70.2438 342.351 70.0464C342.35 69.8491 342.35 69.6517 342.349 69.4485C342.347 68.8187 342.342 68.189 342.338 67.5593C342.336 67.1321 342.334 66.705 342.332 66.2778C342.328 65.2311 342.322 64.1844 342.314 63.1377C339.322 63.1199 336.329 63.1065 333.337 63.0983C331.948 63.0944 330.558 63.089 329.169 63.0803C327.957 63.0727 326.745 63.0678 325.533 63.0661C324.892 63.0651 324.251 63.0628 323.61 63.0573C322.893 63.0517 322.176 63.051 321.458 63.0513C321.248 63.0486 321.038 63.0459 320.822 63.0431C318.9 63.0532 317.354 63.4773 316.147 65.0283Z" fill="#1957A5"/>
<path d="M420.54 38.5808C421.247 38.5819 421.954 38.5812 422.661 38.5801C425.299 38.5766 427.936 38.5863 430.572 38.6828C430.76 38.6892 430.948 38.6956 431.142 38.7021C434.507 38.8455 437.825 39.9982 440.253 42.4091C440.754 43.0133 441.181 43.6391 441.585 44.3108C441.658 44.4314 441.732 44.552 441.808 44.6763C443.638 47.9831 443.769 52.4259 442.91 56.0399C442.099 58.8216 440.733 60.805 438.236 62.2927C434.157 64.5087 429.369 64.3349 424.866 64.3162C424.359 64.3155 423.852 64.315 423.345 64.3146C422.156 64.3134 420.967 64.3103 419.777 64.3065C418.421 64.3022 417.065 64.3001 415.708 64.2982C412.923 64.2943 410.138 64.2876 407.353 64.2791C407.433 65.1036 407.518 65.9275 407.603 66.7514C407.625 66.9835 407.648 67.2157 407.671 67.4549C407.88 69.7754 407.88 69.7754 409.148 71.6484C410.951 73.0369 412.996 73.1396 415.193 73.1309C415.476 73.1326 415.759 73.1346 416.043 73.1369C416.804 73.1422 417.566 73.1428 418.328 73.1427C419.127 73.1433 419.925 73.1481 420.724 73.1525C422.233 73.1602 423.743 73.1641 425.252 73.1666C426.972 73.1696 428.691 73.1769 430.411 73.1846C433.945 73.2002 437.48 73.21 441.014 73.2173C441.014 75.9786 441.014 78.74 441.014 81.585C440.506 81.8391 440.118 81.7997 439.549 81.8006C439.317 81.8014 439.086 81.8022 438.848 81.803C438.591 81.803 438.333 81.8029 438.076 81.8028C437.805 81.8033 437.535 81.804 437.265 81.8047C436.529 81.8064 435.793 81.8068 435.057 81.807C434.596 81.8071 434.135 81.8075 433.674 81.808C432.062 81.8098 430.45 81.8105 428.839 81.8104C427.343 81.8103 425.847 81.8123 424.351 81.8153C423.063 81.8178 421.776 81.8188 420.488 81.8187C419.72 81.8186 418.953 81.8191 418.186 81.8212C406.911 81.8489 406.911 81.849 402.599 77.9717C397.492 72.8552 398.781 64.2946 398.772 57.623C398.771 57.4123 398.771 57.2015 398.77 56.9844C398.766 54.9654 398.77 52.9492 398.879 50.9327C398.89 50.7298 398.89 50.7298 398.901 50.5229C399.114 47.0929 400.664 44.1427 403.169 41.8385C405.762 39.5879 409.215 38.8338 412.561 38.688C412.739 38.6802 412.916 38.6724 413.1 38.6643C415.579 38.5676 418.06 38.577 420.54 38.5808ZM408.875 48.6848C407.497 50.346 407.466 52.1723 407.401 54.2474C407.39 54.4906 407.38 54.7338 407.369 54.9843C407.361 55.2167 407.353 55.4491 407.344 55.6886C407.337 55.9002 407.329 56.1118 407.322 56.3299C407.311 56.9024 407.311 56.9024 407.734 57.4328C408.134 57.5188 408.134 57.5188 408.604 57.504C408.787 57.5053 408.971 57.5067 409.16 57.508C409.362 57.5066 409.564 57.5051 409.772 57.5036C410.09 57.5047 410.09 57.5047 410.415 57.5057C411.12 57.5073 411.825 57.5047 412.53 57.5019C413.019 57.5018 413.509 57.5019 413.998 57.5022C415.026 57.5022 416.055 57.5003 417.083 57.4968C418.268 57.4928 419.453 57.4921 420.638 57.4933C421.78 57.4943 422.923 57.4932 424.065 57.4911C424.55 57.4904 425.034 57.4902 425.519 57.4905C426.199 57.4906 426.879 57.4881 427.559 57.4851C427.758 57.4855 427.957 57.486 428.162 57.4865C430.144 57.4723 431.887 57.2785 433.407 55.9114C434.661 54.3559 434.72 52.7133 434.548 50.7767C434.167 49.4662 433.426 48.4561 432.266 47.7339C430.932 47.0884 429.641 46.9447 428.168 46.9426C428.007 46.9417 427.845 46.9407 427.679 46.9397C427.146 46.937 426.612 46.9357 426.079 46.9346C425.706 46.9335 425.333 46.9324 424.961 46.9313C424.179 46.9293 423.398 46.9282 422.616 46.9276C421.62 46.9265 420.623 46.922 419.627 46.9165C418.857 46.913 418.086 46.912 417.316 46.9117C416.949 46.9111 416.582 46.9096 416.215 46.9071C412.267 46.854 412.267 46.854 408.875 48.6848Z" fill="#1957A5"/>
<path d="M509.477 20.1587C512.364 20.1587 515.251 20.1587 518.225 20.1587C518.225 26.2462 518.225 32.3337 518.225 38.6056C523.51 38.5906 523.51 38.5906 528.795 38.5713C545.324 38.5307 545.324 38.5307 551.137 44.293C553.92 47.1697 555.716 51.1495 555.712 55.1938C555.713 55.5442 555.713 55.5442 555.713 55.9017C555.712 56.158 555.712 56.4143 555.711 56.6706C555.711 56.9424 555.711 57.2143 555.711 57.4861C555.711 58.222 555.71 58.9578 555.709 59.6937C555.708 60.4635 555.707 61.2333 555.707 62.0031C555.707 63.4599 555.705 64.9167 555.703 66.3734C555.701 68.0323 555.7 69.6913 555.699 71.3502C555.697 74.7618 555.694 78.1734 555.689 81.585C552.803 81.585 549.916 81.585 546.941 81.585C546.93 80.157 546.918 78.729 546.906 77.2578C546.899 76.34 546.891 75.4222 546.883 74.5043C546.871 73.0553 546.858 71.6062 546.847 70.1571C546.824 67.2448 546.796 64.3325 546.758 61.4203C546.752 60.8978 546.746 60.3753 546.74 59.8528C546.731 59.0324 546.715 58.2123 546.697 57.392C546.695 57.1727 546.692 56.9534 546.69 56.7275C546.617 54.0652 545.794 51.8086 543.851 49.9685C537.626 44.7569 523.328 47.0306 518.225 46.9733C518.225 58.3951 518.225 69.817 518.225 81.585C515.338 81.585 512.451 81.585 509.477 81.585C509.477 61.3143 509.477 41.0436 509.477 20.1587Z" fill="#1957A5"/>
<path d="M257.701 38.5802C258.072 38.58 258.443 38.5799 258.814 38.5796C259.585 38.5793 260.356 38.5797 261.127 38.5806C262.1 38.5817 263.073 38.5811 264.046 38.58C270.892 38.5734 270.892 38.5734 273.782 38.6819C274.045 38.6913 274.045 38.6913 274.312 38.7009C279.873 38.956 284.827 40.8758 288.72 44.9168C292.607 49.3531 292.768 54.9171 292.736 60.5127C292.733 61.2556 292.732 61.9985 292.732 62.7414C292.73 64.1429 292.725 65.5443 292.719 66.9458C292.713 68.5436 292.71 70.1414 292.707 71.7392C292.701 75.0211 292.691 78.3029 292.678 81.5848C289.729 81.5848 286.779 81.5848 283.74 81.5848C283.736 80.4204 283.736 80.4204 283.732 79.2324C283.722 76.6622 283.71 74.0921 283.695 71.5219C283.687 69.9642 283.679 68.4066 283.674 66.8489C283.67 65.4902 283.664 64.1316 283.655 62.7729C283.65 62.0544 283.647 61.3359 283.646 60.6174C283.644 59.9392 283.641 59.261 283.635 58.5827C283.632 58.2192 283.633 57.8556 283.633 57.492C283.604 54.8215 283.089 52.2557 281.22 50.2417C277.783 47.0972 272.729 47.0694 268.334 47.1009C267.969 47.1015 267.605 47.1018 267.241 47.1019C266.487 47.1028 265.734 47.1055 264.98 47.1098C264.014 47.1152 263.047 47.1172 262.081 47.1181C261.333 47.1189 260.585 47.1207 259.838 47.123C259.481 47.1241 259.124 47.125 258.767 47.1257C258.272 47.127 257.778 47.1296 257.283 47.1326C257.136 47.1328 256.989 47.1331 256.837 47.1333C256.096 47.1251 256.096 47.1251 255.404 47.3534C255.341 58.6498 255.279 69.9462 255.214 81.5848C252.264 81.5848 249.315 81.5848 246.276 81.5848C246.259 76.6998 246.245 71.8147 246.236 66.9296C246.232 64.6612 246.227 62.3928 246.218 60.1243C246.211 58.1462 246.206 56.1681 246.204 54.19C246.203 53.1435 246.201 52.097 246.195 51.0504C246.19 50.0634 246.189 49.0765 246.19 48.0895C246.19 47.7291 246.188 47.3688 246.185 47.0084C246.165 44.4337 246.211 41.9048 247.797 39.7465C248.863 38.7936 250.156 38.7211 251.517 38.6761C251.693 38.6691 251.868 38.6621 252.049 38.6549C253.933 38.5857 255.816 38.5778 257.701 38.5802Z" fill="#1957A5"/>
<path d="M185.04 38.7954C187.989 38.7954 190.939 38.7954 193.978 38.7954C193.981 39.59 193.983 40.3846 193.986 41.2032C193.996 43.8326 194.008 46.462 194.023 49.0913C194.031 50.6851 194.039 52.2788 194.044 53.8725C194.048 55.2624 194.054 56.6523 194.063 58.0423C194.068 58.7774 194.071 59.5126 194.072 60.2478C194.074 60.9415 194.077 61.6351 194.083 62.3288C194.086 62.7013 194.085 63.0738 194.085 63.4463C194.114 66.1868 194.697 68.5104 196.593 70.5345C199.033 72.8178 202.383 73.0522 205.561 73.0721C205.796 73.0736 206.031 73.0752 206.274 73.0768C206.771 73.0794 207.269 73.0814 207.766 73.0829C208.27 73.0851 208.774 73.089 209.278 73.0946C213.552 73.1423 217.34 73.0661 220.602 69.984C223.276 66.8228 222.539 62.0863 222.562 58.2173C222.566 57.5326 222.571 56.8478 222.576 56.163C222.585 54.8713 222.594 53.5796 222.602 52.2879C222.612 50.8152 222.622 49.3425 222.633 47.8698C222.654 44.845 222.674 41.8202 222.694 38.7954C225.518 38.7954 228.342 38.7954 231.252 38.7954C231.269 42.4804 231.283 46.1654 231.291 49.8505C231.295 51.5619 231.301 53.2732 231.309 54.9846C231.317 56.4777 231.322 57.9708 231.323 59.464C231.324 60.2533 231.327 61.0424 231.332 61.8317C231.386 69.6547 231.386 69.6547 229.778 72.5395C229.713 72.6628 229.647 72.7861 229.58 72.9132C227.466 76.803 224.315 79.358 220.103 80.656C217.556 81.3712 215.084 81.6437 212.441 81.6351C212.155 81.6354 211.868 81.6358 211.582 81.6363C210.985 81.6368 210.389 81.636 209.792 81.6342C209.038 81.6321 208.284 81.6333 207.531 81.6355C194.75 81.6672 194.75 81.6672 190.174 77.4008C190.029 77.2723 189.883 77.1439 189.733 77.0115C186.674 74.1706 185.28 70.0639 185.04 65.9903C185.015 65.0717 185.015 64.1538 185.018 63.2349C185.018 62.9666 185.018 62.6983 185.018 62.4301C185.018 61.7092 185.019 60.9884 185.02 60.2675C185.021 59.5114 185.022 58.7553 185.022 57.9992C185.022 56.5708 185.024 55.1423 185.026 53.7138C185.028 52.0862 185.029 50.4585 185.03 48.8309C185.032 45.4857 185.035 42.1406 185.04 38.7954Z" fill="#1957A5"/>
<path d="M478.255 38.5615C478.774 38.5619 479.292 38.5618 479.811 38.5617C480.888 38.5619 481.966 38.5635 483.044 38.5661C484.29 38.5692 485.536 38.5701 486.782 38.57C488.115 38.5699 489.448 38.5712 490.78 38.5729C491.163 38.5733 491.546 38.5735 491.929 38.5736C492.638 38.574 493.347 38.5756 494.056 38.5777C494.268 38.5776 494.481 38.5775 494.699 38.5774C494.986 38.5786 494.986 38.5786 495.28 38.5799C495.447 38.5802 495.614 38.5805 495.787 38.5808C496.165 38.6053 496.165 38.6053 496.355 38.7955C496.373 39.0524 496.377 39.3102 496.377 39.5677C496.377 39.7314 496.377 39.8951 496.377 40.0638C496.376 40.2417 496.375 40.4196 496.374 40.6029C496.373 40.8747 496.373 40.8747 496.373 41.1521C496.372 41.7334 496.369 42.3148 496.367 42.8961C496.366 43.2892 496.365 43.6823 496.364 44.0754C496.362 45.0413 496.359 46.0071 496.355 46.973C496.236 46.9736 496.116 46.9742 495.993 46.9749C493.079 46.9904 490.164 47.0079 487.249 47.0276C485.84 47.0371 484.43 47.046 483.021 47.0532C481.791 47.0595 480.562 47.0671 479.332 47.0762C478.682 47.081 478.032 47.0851 477.382 47.0877C476.654 47.0909 475.925 47.0965 475.197 47.1025C474.985 47.1029 474.773 47.1033 474.554 47.1037C471.751 47.1333 468.773 47.5868 466.688 49.6354C464.478 52.178 463.798 55.6702 463.645 58.9539C463.635 59.1454 463.625 59.3369 463.615 59.5341C463.513 63.2887 464.081 67.818 466.638 70.7425C468.887 72.9169 472.083 73.0818 475.046 73.0875C475.278 73.0894 475.511 73.0913 475.75 73.0933C476.378 73.0981 477.006 73.1013 477.634 73.1038C478.294 73.1068 478.953 73.1119 479.613 73.1167C480.858 73.1256 482.104 73.1326 483.349 73.1389C484.768 73.1462 486.188 73.1556 487.607 73.1652C490.523 73.1847 493.439 73.2017 496.355 73.217C496.36 74.4052 496.363 75.5934 496.366 76.7816C496.366 77.1862 496.368 77.5907 496.369 77.9953C496.372 78.5754 496.373 79.1555 496.374 79.7357C496.375 80.0088 496.375 80.0088 496.377 80.2874C496.377 80.4549 496.377 80.6224 496.377 80.795C496.377 80.9432 496.378 81.0914 496.378 81.2441C496.355 81.5847 496.355 81.5847 496.165 81.7749C495.87 81.7939 495.575 81.7997 495.28 81.8003C495.088 81.8011 494.896 81.8019 494.699 81.8027C494.381 81.8026 494.381 81.8026 494.056 81.8025C493.834 81.8031 493.612 81.8038 493.383 81.8044C492.771 81.8059 492.159 81.8065 491.547 81.8067C491.164 81.8068 490.78 81.8072 490.396 81.8077C489.053 81.8095 487.709 81.8102 486.366 81.8101C485.122 81.81 483.878 81.812 482.634 81.815C481.562 81.8175 480.489 81.8185 479.417 81.8184C478.778 81.8183 478.14 81.819 477.502 81.8209C471.714 81.8362 465.479 81.7998 460.983 77.591C460.811 77.4368 460.64 77.2826 460.463 77.1238C456.026 72.9435 454.685 66.7841 454.493 60.8861C454.372 54.8451 455.621 48.1588 459.912 43.6421C464.927 38.5773 471.596 38.542 478.255 38.5615Z" fill="#1957A5"/>
<path d="M130.84 26.6245C134.041 26.6245 137.241 26.6245 140.539 26.6245C140.772 27.3228 140.756 27.9652 140.754 28.6922C140.754 28.8464 140.755 29.0006 140.755 29.1595C140.756 29.678 140.756 30.1965 140.756 30.7151C140.757 31.0862 140.757 31.4573 140.758 31.8284C140.759 32.6288 140.76 33.4291 140.761 34.2295C140.762 35.4964 140.765 36.7632 140.769 38.0301C140.77 38.4638 140.771 38.8976 140.773 39.3314C140.773 39.5487 140.774 39.766 140.774 39.9898C140.782 42.9395 140.789 45.8892 140.791 48.8388C140.793 50.8278 140.797 52.8168 140.804 54.8057C140.808 55.8579 140.81 56.91 140.809 57.9621C140.808 58.9532 140.811 59.9442 140.816 60.9352C140.818 61.2977 140.818 61.6601 140.816 62.0226C140.808 64.5375 140.905 66.8332 142.627 68.838C144.8 71.0199 147.77 71.6575 150.76 71.799C150.925 71.807 151.09 71.8149 151.26 71.8231C153.455 71.9205 155.651 71.9303 157.848 71.9462C158.311 71.9501 158.775 71.9541 159.238 71.9581C160.445 71.9685 161.652 71.978 162.859 71.9872C164.314 71.9986 165.769 72.0111 167.224 72.0234C169.422 72.0419 171.621 72.0589 173.819 72.0762C173.819 75.2768 173.819 78.4774 173.819 81.7751C170.82 81.7837 167.821 81.7907 164.822 81.7948C163.429 81.7967 162.036 81.7994 160.643 81.8038C159.426 81.8076 158.21 81.81 156.993 81.8108C156.351 81.8113 155.709 81.8127 155.067 81.8153C148.21 81.842 141.392 81.6213 135.975 76.8305C135.86 76.7342 135.746 76.6378 135.628 76.5386C132.536 73.7264 131.228 69.4576 130.84 65.4201C130.816 64.8679 130.815 64.3169 130.817 63.7643C130.817 63.6046 130.817 63.4448 130.817 63.2803C130.816 62.7489 130.817 62.2175 130.818 61.686C130.818 61.3036 130.818 60.9212 130.818 60.5387C130.818 59.5031 130.819 58.4675 130.821 57.4319C130.822 56.3486 130.822 55.2653 130.822 54.1821C130.823 52.1319 130.824 50.0818 130.826 48.0316C130.828 45.6971 130.829 43.3626 130.83 41.0281C130.832 36.2269 130.836 31.4257 130.84 26.6245Z" fill="#1957A5"/>
<path d="M367.797 28.5264C370.747 28.5264 373.696 28.5264 376.735 28.5264C376.735 31.8525 376.735 35.1787 376.735 38.6056C377.55 38.5968 378.365 38.588 379.205 38.5789C379.855 38.574 380.505 38.5698 381.155 38.5662C381.841 38.5622 382.527 38.5569 383.213 38.5482C383.874 38.5399 384.535 38.5354 385.196 38.5334C385.571 38.5313 385.945 38.5254 386.32 38.5194C386.663 38.5193 386.663 38.5193 387.012 38.5192C387.314 38.5167 387.314 38.5167 387.621 38.5141C388.286 38.63 388.508 38.8295 388.907 39.3663C388.998 39.7466 388.998 39.7466 388.993 40.151C388.993 40.3053 388.993 40.4597 388.993 40.6187C388.989 40.779 388.985 40.9394 388.981 41.1046C388.98 41.2534 388.979 41.4022 388.979 41.5554C388.975 42.1095 388.964 42.6634 388.954 43.2173C388.938 44.4568 388.923 45.6963 388.907 46.9733C384.89 46.9733 380.874 46.9733 376.735 46.9733C376.748 51.1396 376.748 51.1396 376.768 55.3058C376.777 56.7963 376.784 58.2868 376.787 59.7773C376.789 60.9578 376.795 62.1383 376.803 63.3188C376.807 63.9431 376.81 64.5674 376.81 65.1917C376.81 65.8909 376.816 66.5899 376.822 67.2891C376.821 67.4932 376.82 67.6973 376.819 67.9076C376.841 69.5068 377.209 70.8642 378.007 72.2546C379.007 73.1466 380.369 73.6098 381.701 73.6337C381.853 73.6369 382.004 73.6401 382.16 73.6433C382.322 73.6459 382.484 73.6485 382.651 73.6512C382.902 73.6564 382.902 73.6564 383.158 73.6618C383.873 73.6767 384.588 73.6897 385.304 73.7027C385.826 73.7125 386.348 73.7234 386.87 73.7344C387.033 73.737 387.196 73.7395 387.364 73.7422C388.505 73.7664 388.505 73.7664 388.716 73.978C388.733 74.5404 388.738 75.0983 388.735 75.6606C388.735 75.9135 388.735 75.9135 388.734 76.1715C388.733 76.7121 388.731 77.2528 388.728 77.7934C388.727 78.159 388.727 78.5246 388.726 78.8902C388.724 79.7885 388.72 80.6868 388.716 81.585C388.177 81.7396 387.708 81.7961 387.147 81.7853C386.989 81.7828 386.83 81.7802 386.667 81.7775C386.496 81.7735 386.326 81.7696 386.15 81.7655C385.97 81.7619 385.791 81.7583 385.606 81.7547C385.225 81.7467 384.843 81.7382 384.461 81.7292C383.892 81.7161 383.323 81.7056 382.754 81.6953C380.895 81.657 379.046 81.5788 377.195 81.4075C377.031 81.3926 376.868 81.3778 376.7 81.3625C375.487 81.2404 374.408 80.9972 373.312 80.444C373.068 80.3237 373.068 80.3237 372.819 80.201C370.825 79.1171 369.515 77.4334 368.748 75.3093C368.041 72.6751 367.767 70.0314 367.776 67.3107C367.776 67.0897 367.776 66.8687 367.776 66.641C367.776 65.9166 367.777 65.1922 367.779 64.4678C367.779 63.9632 367.779 63.4585 367.78 62.9538C367.78 61.7651 367.782 60.5764 367.784 59.3877C367.786 58.0333 367.787 56.6788 367.788 55.3243C367.79 52.5406 367.793 49.757 367.797 46.9733C365.852 46.9733 363.906 46.9733 361.902 46.9733C361.902 44.2119 361.902 41.4506 361.902 38.6056C363.785 38.6056 365.667 38.6056 367.607 38.6056C367.67 35.2795 367.733 31.9533 367.797 28.5264Z" fill="#1957A5"/>
</svg>
