<svg width="24" height="24" viewBox="0 0 24 24" fill="none" xmlns="http://www.w3.org/2000/svg">
<path d="M10.8889 19.5556H4.22222C3.63286 19.5556 3.06762 19.3214 2.65088 18.9047C2.23412 18.4879 2 17.9227 2 17.3333V6.22222C2 5.63286 2.23412 5.06762 2.65088 4.65088C3.06762 4.23412 3.63286 4 4.22222 4H19.7778C20.3671 4 20.9323 4.23412 21.3491 4.65088C21.7659 5.06762 22 5.63286 22 6.22222V10.6667M6.44444 8.44444L10.8889 12.8889M10.8889 12.8889H7.55556M10.8889 12.8889V9.55556M14.2222 15.1111C14.2222 14.8164 14.3393 14.5338 14.5477 14.3254C14.756 14.1171 15.0387 14 15.3333 14H20.8889C21.1836 14 21.4662 14.1171 21.6746 14.3254C21.8829 14.5338 22 14.8164 22 15.1111V18.4444C22 18.7391 21.8829 19.0218 21.6746 19.2301C21.4662 19.4384 21.1836 19.5556 20.8889 19.5556H15.3333C15.0387 19.5556 14.756 19.4384 14.5477 19.2301C14.3393 19.0218 14.2222 18.7391 14.2222 18.4444V15.1111Z" stroke="#F15A24" stroke-width="2" stroke-linecap="round" stroke-linejoin="round"/>
</svg>
