<svg width="37" height="34" viewBox="0 0 37 34" fill="none" xmlns="http://www.w3.org/2000/svg">
<path d="M9.5 19H9.51M14.5 19H14.51M9.5 23C9.82588 23.3326 10.2148 23.5968 10.6441 23.7772C11.0734 23.9576 11.5344 24.0505 12 24.0505C12.4656 24.0505 12.9266 23.9576 13.3559 23.7772C13.7852 23.5968 14.1741 23.3326 14.5 23M4 31V18C4 17.2044 4.31607 16.4413 4.87868 15.8787C5.44129 15.3161 6.20435 15 7 15H17C17.7956 15 18.5587 15.3161 19.1213 15.8787C19.6839 16.4413 20 17.2044 20 18V24C20 24.7956 19.6839 25.5587 19.1213 26.1213C18.5587 26.6839 17.7956 27 17 27H8L4 31Z" stroke="#FF5E00" stroke-width="2" stroke-linecap="round" stroke-linejoin="round"/>
<path d="M25 10L29 6L33 10" stroke="#FF5E00" stroke-linecap="round" stroke-linejoin="round"/>
</svg>
