<svg width="50" height="45" viewBox="0 0 50 45" fill="none" xmlns="http://www.w3.org/2000/svg">
<rect width="50" height="45" rx="4" fill="#CC3B33"/>
<path d="M12.8968 27.4789L10.4774 24.7956C10.2519 24.5475 10.0756 24.2498 9.96002 23.9216C9.84438 23.5933 9.79188 23.2418 9.80588 22.8895C9.81987 22.5371 9.90005 22.1918 10.0413 21.8756C10.1825 21.5593 10.3817 21.2791 10.626 21.053C13.3822 18.5942 16.6187 16.8857 20.0754 16.0646C23.266 15.2724 26.5733 15.2688 29.7625 16.0539C33.2321 16.8727 36.4773 18.5868 39.2353 21.0573C39.4785 21.2823 39.6767 21.561 39.8173 21.8758C39.9579 22.1906 40.0378 22.5345 40.0519 22.8857C40.066 23.2369 40.014 23.5876 39.8993 23.9156C39.7845 24.2436 39.6095 24.5416 39.3853 24.7906L36.9611 27.4793C36.5728 27.9185 36.0541 28.1864 35.5015 28.2332C34.949 28.2799 34.4003 28.1022 33.9579 27.7333C33.0813 26.988 32.1314 26.3553 31.1261 25.8473C30.7288 25.6477 30.3915 25.3259 30.1544 24.9199C29.9172 24.5139 29.7901 24.0409 29.7881 23.5567L29.7902 21.2826C26.6208 20.3191 23.2741 20.3228 20.103 21.2932L20.101 23.5674C20.0981 24.0515 19.9702 24.5249 19.7323 24.9314C19.4944 25.3379 19.1566 25.6604 18.7589 25.8609C17.7527 26.3712 16.8016 27.0059 15.9237 27.7531C15.4759 28.1272 14.9201 28.3059 14.362 28.2553C13.8039 28.2048 13.2824 27.9284 12.8968 27.4789Z" fill="white"/>
</svg>
