<svg width="48" height="41" viewBox="0 0 48 41" fill="none" xmlns="http://www.w3.org/2000/svg">
<g clip-path="url(#clip0_77_1046)" filter="url(#filter0_d_77_1046)">
<path d="M7.49953 32.7688H13.6314V18.3026L4.87158 11.9204V30.216C4.87158 31.6285 6.04978 32.7688 7.49953 32.7688Z" fill="#4285F4"/>
<path d="M34.6548 32.7688H40.7867C42.2408 32.7688 43.4146 31.6243 43.4146 30.216V11.9204L34.6548 18.3026" fill="#34A853"/>
<path d="M34.6548 7.24036V18.3028L43.4146 11.9206V8.51679C43.4146 5.35975 39.7048 3.55998 37.1075 5.45335" fill="#FBBC04"/>
<path d="M13.6313 18.3026V7.24017L24.1431 14.8988L34.6549 7.24017V18.3026L24.1431 25.9612" fill="#EA4335"/>
<path d="M4.87158 8.51679V11.9206L13.6314 18.3028V7.24036L11.1787 5.45335C8.57699 3.55998 4.87158 5.35975 4.87158 8.51679Z" fill="#C5221F"/>
</g>
<defs>
<filter id="filter0_d_77_1046" x="0.871582" y="0" width="46.5435" height="45.442" filterUnits="userSpaceOnUse" color-interpolation-filters="sRGB">
<feFlood flood-opacity="0" result="BackgroundImageFix"/>
<feColorMatrix in="SourceAlpha" type="matrix" values="0 0 0 0 0 0 0 0 0 0 0 0 0 0 0 0 0 0 127 0" result="hardAlpha"/>
<feOffset dy="4"/>
<feGaussianBlur stdDeviation="2"/>
<feComposite in2="hardAlpha" operator="out"/>
<feColorMatrix type="matrix" values="0 0 0 0 0 0 0 0 0 0 0 0 0 0 0 0 0 0 0.25 0"/>
<feBlend mode="normal" in2="BackgroundImageFix" result="effect1_dropShadow_77_1046"/>
<feBlend mode="normal" in="SourceGraphic" in2="effect1_dropShadow_77_1046" result="shape"/>
</filter>
<clipPath id="clip0_77_1046">
<rect width="38.5432" height="37.442" fill="white" transform="translate(4.87158)"/>
</clipPath>
</defs>
</svg>
