<svg width="23" height="20" viewBox="0 0 23 20" fill="none" xmlns="http://www.w3.org/2000/svg">
<g clip-path="url(#clip0_1585_853)">
<path d="M18.2082 8.33334V10C18.2082 11.5471 17.5014 13.0308 16.2433 14.1248C14.9853 15.2188 13.279 15.8333 11.4998 15.8333M11.4998 15.8333C9.72068 15.8333 8.01439 15.2188 6.75633 14.1248C5.49827 13.0308 4.7915 11.5471 4.7915 10V8.33334M11.4998 15.8333V19.1667M7.6665 19.1667H15.3332M11.4998 0.833344C10.7373 0.833344 10.0061 1.09674 9.46691 1.56558C8.92774 2.03442 8.62484 2.6703 8.62484 3.33334V10C8.62484 10.6631 8.92774 11.2989 9.46691 11.7678C10.0061 12.2366 10.7373 12.5 11.4998 12.5C12.2623 12.5 12.9936 12.2366 13.5328 11.7678C14.0719 11.2989 14.3748 10.6631 14.3748 10V3.33334C14.3748 2.6703 14.0719 2.03442 13.5328 1.56558C12.9936 1.09674 12.2623 0.833344 11.4998 0.833344Z" stroke="#FF5E00" stroke-width="2" stroke-linecap="round" stroke-linejoin="round"/>
</g>
<defs>
<clipPath id="clip0_1585_853">
<rect width="23" height="20" fill="white"/>
</clipPath>
</defs>
</svg>
