<svg width="19" height="22" viewBox="0 0 19 22" fill="none" xmlns="http://www.w3.org/2000/svg">
<path d="M9.00018 4.5C9.00018 4.10218 8.84215 3.72064 8.56084 3.43934C8.27954 3.15804 7.89801 3 7.50018 3C7.10236 3 6.72083 3.15804 6.43952 3.43934C6.15822 3.72064 6.00018 4.10218 6.00018 4.5V12L4.53018 10.53C4.23572 10.2359 3.85143 10.0486 3.43834 9.99785C3.02526 9.94712 2.60706 10.0359 2.25018 10.25C1.91513 10.4509 1.67166 10.7745 1.57157 11.1522C1.47147 11.5298 1.52263 11.9315 1.71418 12.272C3.59318 15.612 4.68818 17.521 5.00018 18C5.06526 18.1002 5.13059 18.2002 5.19618 18.3C5.7427 19.1299 6.48676 19.811 7.36157 20.2823C8.23637 20.7535 9.21452 21.0002 10.2082 21H10.0002H12.0002C13.5915 21 15.1176 20.3679 16.2428 19.2426C17.368 18.1174 18.0002 16.5913 18.0002 15V6.5C18.0002 6.10218 17.8421 5.72064 17.5608 5.43934C17.2795 5.15804 16.898 5 16.5002 5C16.1024 5 15.7208 5.15804 15.4395 5.43934C15.1582 5.72064 15.0002 6.10218 15.0002 6.5M9.00018 4.5V11M9.00018 4.5V2.5C9.00018 2.30302 9.03898 2.10796 9.11436 1.92597C9.18975 1.74399 9.30023 1.57863 9.43952 1.43934C9.57881 1.30005 9.74417 1.18956 9.92616 1.11418C10.1081 1.0388 10.3032 1 10.5002 1C10.6972 1 10.8922 1.0388 11.0742 1.11418C11.2562 1.18956 11.4216 1.30005 11.5608 1.43934C11.7001 1.57863 11.8106 1.74399 11.886 1.92597C11.9614 2.10796 12.0002 2.30302 12.0002 2.5V11M12.0002 4.5C12.0002 4.10218 12.1582 3.72064 12.4395 3.43934C12.7208 3.15804 13.1024 3 13.5002 3C13.898 3 14.2795 3.15804 14.5608 3.43934C14.8421 3.72064 15.0002 4.10218 15.0002 4.5V11" stroke="#FF5E00" stroke-width="2" stroke-linecap="round" stroke-linejoin="round"/>
</svg>
