<svg width="206" height="166" viewBox="0 0 206 166" fill="none" xmlns="http://www.w3.org/2000/svg">
<g clip-path="url(#clip0_2439_1447)">
<path d="M205.912 116.911V16.2829C205.912 7.2982 198.613 0.0146484 189.609 0.0146484L16.3024 0.0146484C7.29884 0.0146484 0 7.2982 0 16.2829V116.911C0 125.896 7.29884 133.179 16.3024 133.179H189.609C198.613 133.179 205.912 125.896 205.912 116.911Z" fill="#97C1FF"/>
<path d="M186.82 9.8197H19.0965C13.9764 9.8197 9.82568 13.9617 9.82568 19.0711V114.123C9.82568 119.232 13.9764 123.374 19.0965 123.374H186.82C191.94 123.374 196.091 119.232 196.091 114.123V19.0711C196.091 13.9617 191.94 9.8197 186.82 9.8197Z" fill="white"/>
<path d="M196.086 19.0711V114.128C196.086 116.695 195.035 119.018 193.341 120.694C191.667 122.35 189.369 123.374 186.815 123.374H19.0965C16.548 123.374 14.245 122.35 12.5657 120.694C10.8716 119.018 9.8208 116.695 9.8208 114.128V19.0711C9.8208 13.9603 13.975 9.8197 19.0916 9.8197H186.815C191.937 9.8197 196.081 13.9652 196.081 19.0711H196.086Z" fill="#37475D"/>
<path d="M125.052 133.179H80.8591V158.498H125.052V133.179Z" fill="#97C1FF"/>
<g opacity="0.4" style="mix-blend-mode:multiply">
<path d="M125.052 133.179V149.281L80.8837 133.179H125.052Z" fill="#97C1FF"/>
</g>
<path d="M137.78 166H68.1315C68.1315 161.854 71.4951 158.498 75.6493 158.498H130.262C134.417 158.498 137.78 161.854 137.78 166Z" fill="#97C1FF"/>
<g opacity="0.4" style="mix-blend-mode:multiply">
<path d="M137.78 166H68.1315C68.1315 161.854 71.4951 158.498 75.6493 158.498H130.262C134.417 158.498 137.78 161.854 137.78 166Z" fill="#97C1FF"/>
</g>
<path d="M196.086 19.0711C196.086 13.9603 191.937 9.8197 186.815 9.8197H19.0965C13.9749 9.8197 9.82568 13.9603 9.82568 19.0711V19.6199H196.091V19.0711H196.086Z" fill="#E6E6E6"/>
<path d="M173.768 14.7198C173.768 15.7782 172.909 16.6357 171.848 16.6357C170.788 16.6357 169.928 15.7782 169.928 14.7198C169.928 13.6613 170.788 12.8038 171.848 12.8038C172.909 12.8038 173.768 13.6613 173.768 14.7198Z" fill="#6BF789"/>
<path d="M179.332 14.7198C179.332 15.7782 178.472 16.6357 177.412 16.6357C176.351 16.6357 175.492 15.7782 175.492 14.7198C175.492 13.6613 176.351 12.8038 177.412 12.8038C178.472 12.8038 179.332 13.6613 179.332 14.7198Z" fill="#FFB441"/>
<path d="M184.895 14.7198C184.895 15.7782 184.036 16.6357 182.975 16.6357C181.915 16.6357 181.055 15.7782 181.055 14.7198C181.055 13.6613 181.915 12.8038 182.975 12.8038C184.036 12.8038 184.895 13.6613 184.895 14.7198Z" fill="#FA5069"/>
<path d="M75.8947 45.4482H21.149C18.1306 45.4482 15.6837 47.89 15.6837 50.902V105.665C15.6837 108.677 18.1306 111.119 21.149 111.119H75.8947C78.9131 111.119 81.36 108.677 81.36 105.665V50.902C81.36 47.89 78.9131 45.4482 75.8947 45.4482Z" fill="#FFFBF3"/>
<path d="M55.1287 52.7395C58.0406 41.0332 48.3622 40.4452 43.0885 41.4938C39.8624 42.1357 37.4808 44.8798 37.2108 48.153C36.8425 52.6415 36.9456 58.6833 40.0048 59.6339C49.1921 62.4857 55.1238 52.7346 55.1238 52.7346L55.1287 52.7395Z" fill="#111111"/>
<path d="M47.5471 68.5815C47.5864 65.4944 47.9007 60.903 47.9007 60.903C47.9007 60.903 41.8364 58.6637 39.9017 57.9042C39.6365 59.0753 39.4401 60.266 39.2682 61.5204C38.9441 63.9117 38.7084 66.5185 38.2616 69.6007C41.4484 70.0564 44.6156 70.6297 47.7583 71.3108C47.5717 71.2716 47.5275 70.1103 47.5471 68.5765V68.5815Z" fill="#E2AA99"/>
<g opacity="0.3" style="mix-blend-mode:multiply">
<path d="M39.1013 62.6965C39.5973 63.5099 40.2651 64.6859 42.1507 66.1755C44.1786 67.7779 47.4391 68.5227 47.5472 68.5766C47.5864 65.4895 47.9007 60.8982 47.9007 60.8982C47.9007 60.8982 41.802 58.5853 39.8722 57.8258C39.6071 58.9969 39.2732 61.4372 39.1062 62.6916L39.1013 62.6965Z" fill="#E2AA99"/>
</g>
<path d="M55.1778 55.7089C55.1778 56.3165 55.1729 56.8409 55.1532 57.2476C55.1385 57.6004 55.1188 57.9532 55.0943 58.306C55.0599 58.7421 55.0157 59.1831 54.9323 59.6143C54.8537 60.0063 54.7407 60.3885 54.5689 60.7511C53.9109 62.1476 52.4771 63.0542 51.004 63.5638C48.2443 64.5144 45.0919 64.289 42.509 62.9513C40.0244 61.6723 39.6659 59.5947 38.949 56.9781C38.9195 56.8703 38.8901 56.7625 38.8606 56.6547L39.1356 46.9231L54.5738 46.3351C54.8881 47.8639 55.0796 50.902 55.1483 53.5872C55.1679 54.3369 55.1778 55.0621 55.1778 55.7138V55.7089Z" fill="#E2AA99"/>
<path d="M53.1743 52.6708C52.8404 52.5042 52.4329 52.4797 52.0892 52.6169C51.8731 52.7002 51.6718 52.8717 51.6521 53.0972C51.6472 53.1609 51.662 53.2344 51.716 53.2687C51.7503 53.2883 51.7896 53.2932 51.8289 53.2932C52.1383 53.3079 52.4525 53.2785 52.7619 53.3177C53.0074 53.3471 53.2529 53.4206 53.4739 53.5333C53.5917 53.5921 54.0779 53.7881 53.8274 53.3079C53.6801 53.0237 53.4837 52.8227 53.1793 52.6757L53.1743 52.6708Z" fill="#111111"/>
<path d="M44.704 52.6708C45.0379 52.5042 45.4455 52.4797 45.7892 52.6169C46.0053 52.7002 46.2066 52.8717 46.2262 53.0972C46.2311 53.1609 46.2164 53.2344 46.1624 53.2687C46.128 53.2883 46.0887 53.2932 46.0495 53.2932C45.7401 53.3079 45.4258 53.2785 45.1165 53.3177C44.871 53.3471 44.6254 53.4206 44.4045 53.5333C44.2866 53.5921 43.8005 53.7881 44.0509 53.3079C44.1982 53.0237 44.3947 52.8227 44.6991 52.6757L44.704 52.6708Z" fill="#111111"/>
<path d="M52.8159 55.1748C52.7619 55.3169 52.6342 55.41 52.5017 55.4639C52.2316 55.5766 51.8731 55.5472 51.7062 55.2924C51.441 54.8906 51.549 54.3271 52.1923 54.2487C52.6391 54.1948 52.9681 54.7681 52.8159 55.1699V55.1748Z" fill="#512018"/>
<path d="M46.3097 55.1748C46.2557 55.3169 46.128 55.41 45.9954 55.4639C45.7254 55.5766 45.3669 55.5472 45.2 55.2924C44.9348 54.8906 45.0428 54.3271 45.6861 54.2487C46.1329 54.1948 46.4619 54.7681 46.3097 55.1699V55.1748Z" fill="#512018"/>
<path d="M49.1626 54.283C49.143 54.8171 49.2461 55.3561 49.4621 55.8412C49.5604 56.0568 49.6782 56.2871 49.742 56.5125C49.8353 56.8555 49.5751 57.1985 49.2068 57.2034C48.922 57.2034 48.6225 57.1005 48.4211 56.9143" stroke="#E9B0A7" stroke-width="0.39" stroke-linecap="round" stroke-linejoin="round"/>
<g style="mix-blend-mode:multiply" opacity="0.3">
<path d="M41.4828 55.4983C40.8444 55.7139 40.4565 56.3264 40.3779 56.934C40.2846 57.6347 40.5547 58.3844 41.1439 58.8499C41.7332 59.3203 42.6465 59.4624 43.3487 59.139C43.9527 58.8646 44.3406 58.2815 44.3995 57.6788C44.4535 57.0908 44.1736 56.2872 43.7072 55.8462C43.1965 55.3709 42.1407 55.268 41.4828 55.4934V55.4983Z" fill="#E2AA99"/>
</g>
<path d="M40.5891 53.842C40.2208 52.3965 39.2633 51.6125 38.1388 51.6419C37.9768 51.6419 37.8147 51.6615 37.6674 51.7301C37.525 51.7938 37.4121 51.9065 37.309 52.0241C36.8572 52.5778 36.7492 53.3275 36.7443 54.038C36.7345 54.6849 36.8032 55.3611 37.1617 55.9001C37.5054 56.4146 38.1045 56.7527 38.7281 56.787C39.3517 56.8213 39.9851 56.542 40.378 56.0667" fill="#E2AA99"/>
<g style="mix-blend-mode:multiply">
<path d="M39.2928 55.7188C39.1749 55.3268 38.9883 54.9495 38.7182 54.6359C38.4482 54.3223 38.0848 54.0822 37.6772 53.9989" stroke="#E9B0A7" stroke-width="0.39" stroke-linecap="round" stroke-linejoin="round"/>
<path d="M38.8017 53.4452C38.9539 53.8078 38.8999 54.2488 38.6642 54.5624" stroke="#E9B0A7" stroke-width="0.39" stroke-linecap="round" stroke-linejoin="round"/>
</g>
<g opacity="0.3" style="mix-blend-mode:multiply">
<path d="M53.7539 59.1586C54.078 59.4183 54.5003 59.5751 54.9324 59.6094C55.0158 59.1782 55.06 58.7372 55.0944 58.3011C55.1239 57.9483 55.1386 57.5954 55.1582 57.2426C55.173 56.8359 55.1828 56.3116 55.1828 55.704C54.7998 55.6599 54.402 55.6942 54.0976 55.802C53.4593 56.0176 53.0762 56.6301 52.9928 57.2377C52.8995 57.9385 53.1646 58.6882 53.7588 59.1586H53.7539Z" fill="#E2AA99"/>
</g>
<path d="M55.1631 53.9645C54.7801 53.303 54.6524 51.6076 54.6082 50.3287C54.5788 49.427 53.7047 48.4225 52.8012 48.3686C49.1872 48.153 43.3684 46.3106 41.473 49.4711C41.473 49.4711 41.473 53.5333 40.5106 55.067C39.8084 56.1793 38.9098 51.7497 38.9098 51.7497L38.8263 45.9529C38.8263 45.9529 44.8022 43.6596 47.1248 43.6351C49.2412 43.6155 54.7555 45.7373 54.7555 45.7373L55.3301 51.5586L55.1582 53.9645H55.1631Z" fill="#111111"/>
<path d="M49.7568 58.8989C48.9367 59.237 47.9105 59.0116 47.3114 58.3599" stroke="#E9B0A7" stroke-width="0.39" stroke-linecap="round" stroke-linejoin="round"/>
<path d="M56.8229 47.614C56.5282 47.6434 56.2238 47.614 55.939 47.5356C55.2957 47.3591 54.7261 46.9769 54.186 46.5849C52.6343 45.4677 51.1121 44.228 49.2903 43.6351C47.3606 43.0079 45.1804 43.1941 43.3881 44.1349C42.5042 44.5955 41.6989 45.2521 41.1833 46.1047C40.1178 47.8737 41.2373 49.3339 41.2864 49.3192C42.1654 50.1914 43.6827 50.7598 44.7974 50.1767C45.6616 49.7259 46.5062 49.5054 47.2525 49.4123C48.4458 49.2653 49.6586 49.476 50.7635 49.9611C54.3971 51.5536 55.4627 49.9709 56.1698 49.5299C56.6215 49.2457 57.0144 48.8635 57.309 48.4176C57.5496 48.0501 57.2599 47.5747 56.8229 47.614Z" fill="#111111"/>
<path d="M39.769 41.5428C39.7985 41.4741 39.8525 41.4006 39.9262 41.4153C39.99 41.4251 40.0195 41.4987 40.0342 41.5624C40.1963 42.1896 40.2208 42.8511 40.1079 43.4881C39.5284 43.4244 38.9588 43.2529 38.4383 42.9932C38.3598 42.954 38.2714 42.8805 38.3008 42.7972C38.3254 42.7286 38.4187 42.7139 38.4924 42.7188C38.7722 42.7286 39.5874 42.7433 39.5874 42.7433C39.5874 42.7433 39.6266 41.876 39.774 41.5477L39.769 41.5428Z" fill="#111111"/>
<path d="M47.7681 55.0523C47.7681 56.3655 46.7025 57.4289 45.3865 57.4289C44.0706 57.4289 43.005 56.3655 43.005 55.0523C43.005 53.7391 44.0706 52.6758 45.3865 52.6758C46.7025 52.6758 47.7681 53.7391 47.7681 55.0523Z" stroke="#092023" stroke-width="0.5" stroke-miterlimit="10"/>
<path d="M54.8684 55.0523C54.8684 56.3655 53.8029 57.4289 52.4869 57.4289C51.1709 57.4289 50.1053 56.3655 50.1053 55.0523C50.1053 53.7391 51.1709 52.6758 52.4869 52.6758C53.8029 52.6758 54.8684 53.7391 54.8684 55.0523Z" stroke="#092023" stroke-width="0.5" stroke-miterlimit="10"/>
<path d="M47.6649 54.2144C48.4997 53.8028 49.3835 53.8126 50.2134 54.234" stroke="#092023" stroke-width="0.5" stroke-miterlimit="10"/>
<path d="M28.7796 96.3061C28.7796 96.3061 25.7499 107.047 25.3129 111.148C26.9529 111.266 31.6522 111.32 33.6998 111.335C37.2647 111.354 41.2127 111.256 44.7629 111.168C46.727 111.119 48.5733 111.075 50.1544 111.055C50.1397 107.14 50.1397 96.4825 50.1397 96.4825C50.1397 96.4825 52.3101 87.8584 53.4395 82.2233L51.9762 78.3081L48.809 69.8212C48.809 69.8212 46.511 69.3557 39.5235 67.9641C34.893 67.038 31.1071 71.8057 29.0742 75.128C28.0381 76.8234 27.4587 78.1464 27.4587 78.1464C28.4359 83.8648 28.7796 96.311 28.7796 96.311V96.3061Z" fill="#FFB441"/>
<g opacity="0.35" style="mix-blend-mode:multiply">
<path d="M27.4588 78.1415C27.4588 78.1415 28.0382 76.8185 29.0743 75.123C29.8108 76.9557 30.351 78.8667 30.8175 80.6503C32.2071 85.9277 36.6313 102.387 44.0706 100.981C47.5373 100.324 49.7666 90.7886 50.8665 87.7359C50.9991 87.3634 51.1513 86.9959 51.3232 86.6382L53.4395 82.2135C52.3102 87.8486 50.1398 96.4727 50.1398 96.4727C50.1398 96.4727 50.1398 107.13 50.1545 111.046C42.6318 111.697 26.9432 111.251 25.3031 111.134C25.858 106.479 28.7747 96.3012 28.7747 96.3012C28.7747 96.3012 28.431 83.8599 27.4538 78.1366L27.4588 78.1415Z" fill="#FFB441"/>
</g>
<path d="M51.5048 83.9726C52.2316 86.6186 53.9944 101.941 58.5316 108.169C59.0766 108.914 79.5873 104.499 85.4208 97.536C84.0115 94.6793 81.9737 92.6359 82.1407 92.3909C73.4935 93.9001 72.7324 92.7976 64.6008 95.9092C62.892 85.8003 60.5596 77.4114 55.5608 72.6387C53.9944 71.1442 52.0401 70.1152 49.9286 69.5761L47.9252 69.0616L38.5513 67.474L35.5265 67.4005L51.5147 83.9726H51.5048Z" fill="#FFB441"/>
<path d="M83.4763 91.9695C84.4289 93.6012 85.3717 95.3065 86.3882 96.899C87.4095 96.8451 88.4947 96.6491 89.4277 96.3061C89.6585 96.2228 89.8794 96.1297 90.0906 96.0268C90.1544 95.9974 90.2772 95.8945 90.4441 95.7426C91.3476 94.9096 93.5033 92.5575 93.7832 91.9548L88.6813 86.4667C87.7533 86.4569 85.5338 87.9416 85.1851 88.5542C84.6597 89.4705 83.9968 91.0581 83.4763 91.9793V91.9695Z" fill="#E2AA99"/>
<g opacity="0.2" style="mix-blend-mode:multiply">
<path d="M91.4754 93.6697C91.3231 92.7289 90.3951 91.2687 89.8255 90.4994C89.5799 90.5288 89.3443 90.5729 89.1184 90.6268C89.0496 90.6415 88.9072 90.715 88.7108 90.8277C88.8974 91.1952 89.1036 91.5529 89.1773 91.7244C89.742 93.0376 90.233 94.3949 90.3263 95.8405C91.0285 95.1986 91.6325 94.6253 91.4754 93.6697Z" fill="#D3835B"/>
</g>
<path d="M91.6619 85.2024C92.2365 85.124 92.8846 85.2955 93.2087 85.7709C93.5328 86.2462 93.356 87.0302 92.8012 87.2066C93.2431 86.942 93.8814 87.1135 94.1417 87.5496C94.4068 87.9857 94.2841 88.5982 93.9011 88.9412C94.3774 88.8579 94.8881 89.1568 95.0354 89.6076C95.1827 90.0584 94.9519 90.6072 94.5198 90.8228C94.9077 90.6905 95.3644 90.813 95.6246 91.1217C95.8849 91.4305 95.9241 91.9009 95.7228 92.2537C95.5853 92.4987 95.3496 92.6751 95.1188 92.8417C94.8832 93.0181 92.0646 94.6057 91.6767 94.6743C91.2888 94.7429 90.8321 94.5763 90.7093 94.2137C90.5473 93.7433 91.2986 93.1945 92.2512 92.3517C91.716 92.68 91.1267 92.9348 90.5227 93.0965C90.2821 93.1602 90.0219 93.2141 89.7862 93.1357C89.359 92.9936 89.1773 92.4595 89.2804 92.0234C89.3835 91.5873 90.1839 90.8522 90.4835 90.5092C89.9237 91.0678 88.3425 91.2932 87.9693 90.6072C87.5962 89.9212 88.1854 88.951 89.3393 88.461C88.6863 88.6864 87.9743 88.9412 87.5618 88.8138C87.2279 88.7109 87.0658 88.3042 87.1346 87.9612C87.2033 87.6182 87.4488 87.334 87.7189 87.1037C88.4997 86.4275 90.6357 85.3446 91.6668 85.2024H91.6619Z" fill="#E2AA99"/>
<path d="M94.5198 90.818C94.5198 90.818 93.9748 91.2443 92.2512 92.3468C92.2512 92.3468 93.6703 91.9107 94.5198 90.818Z" fill="#D3835B"/>
<path d="M93.901 88.9412C93.901 88.9412 92.0056 89.5488 90.4834 90.5092C90.4834 90.5092 93.3461 89.3871 93.901 88.9412Z" fill="#D3835B"/>
<path d="M93.0024 87.1233C93.0024 87.1233 90.0611 87.9024 89.1969 88.5149C89.1969 88.5149 92.4427 87.6133 93.0024 87.1233Z" fill="#D3835B"/>
<g opacity="0.2">
<path d="M91.8927 93.2827C91.8387 93.2141 91.765 93.1357 91.6766 93.1553C91.6472 93.1602 91.6177 93.1798 91.5932 93.1945C91.4213 93.3121 91.2592 93.4444 91.1168 93.6012C91.0236 93.6992 90.9401 93.807 90.8959 93.9295C90.8517 94.0569 90.8517 94.2039 90.9253 94.3117C91.0383 94.4783 91.274 94.5126 91.4802 94.493C91.7945 94.4636 92.0989 94.3607 92.369 94.1941C92.5703 94.0667 91.9762 93.3856 91.8976 93.2827H91.8927Z" fill="#D3835B"/>
<path d="M90.7535 91.4059C90.6897 91.3275 90.6062 91.2393 90.508 91.2589C90.4736 91.2638 90.4442 91.2834 90.4147 91.303C90.2183 91.4353 90.0317 91.5872 89.8696 91.7636C89.7665 91.8763 89.6683 91.9988 89.6192 92.1409C89.5701 92.283 89.5308 92.4398 89.7469 92.7436C89.8795 92.9298 90.2085 92.9102 90.4392 92.8906C90.7977 92.8612 91.0138 92.6897 91.2936 92.4398C91.495 92.2585 90.8419 91.5186 90.7535 91.4059Z" fill="#D3835B"/>
<path d="M89.3934 89.3381C89.3296 89.2597 89.2461 89.1715 89.1479 89.1911C89.1135 89.196 89.084 89.2156 89.0546 89.2352C88.8582 89.3675 88.6716 89.5194 88.5095 89.6958C88.4064 89.8085 88.3082 89.931 88.2591 90.0731C88.21 90.2152 88.1707 90.372 88.3868 90.6758C88.5194 90.862 88.8483 90.8425 89.0791 90.8229C89.4376 90.7934 89.6536 90.6219 89.9335 90.372C90.1349 90.1907 89.4818 89.4508 89.3934 89.3381Z" fill="#D3835B"/>
<path d="M88.3376 87.3732C88.2836 87.3046 88.21 87.2311 88.1265 87.2507C88.097 87.2556 88.0725 87.2752 88.043 87.2899C87.8711 87.4026 87.7189 87.5349 87.5765 87.6819C87.4881 87.775 87.4047 87.8828 87.3605 88.0053C87.3163 88.1278 87.2868 88.2601 87.4734 88.5247C87.5863 88.6864 87.8662 88.6668 88.0676 88.6472C88.372 88.6227 88.5586 88.4757 88.7992 88.2601C88.9711 88.1033 88.4162 87.4712 88.3376 87.3732Z" fill="#D3835B"/>
</g>
<g opacity="0.6" style="mix-blend-mode:multiply">
<path d="M86.2015 89.7546C86.339 90.2251 87.4242 92.3615 87.4242 92.3615C87.4242 92.3615 87.5862 90.6955 88.7844 90.2006C89.2951 89.9899 89.7959 90.573 90.2624 90.8572C90.6356 91.0826 91.0481 91.2443 91.4753 91.3325C91.7502 91.3864 92.04 91.4109 92.3051 91.3178C92.5703 91.2247 92.8011 90.9846 92.806 90.7102C92.806 90.5583 92.7569 90.4211 92.6685 90.2986C92.5948 90.1908 92.5015 90.0879 92.4082 89.9948C91.9614 89.5439 91.4851 89.1127 90.994 88.7109C90.5177 88.3189 90.0169 87.9563 89.5013 87.6133C89.1919 87.4075 88.8482 87.2066 88.475 87.2164C88.1853 87.2213 87.9103 87.3585 87.655 87.4957C87.1836 87.7456 86.4176 88.0494 86.064 88.4561C85.7498 88.8187 86.0689 89.3136 86.1966 89.7595L86.2015 89.7546Z" fill="#CCCCCC"/>
</g>
<path d="M85.6712 89.3234C85.7744 89.686 86.8841 91.4501 87.3997 92.2635C87.5568 92.5134 87.66 92.6751 87.66 92.6751C87.66 92.6751 87.5814 91.9842 87.6649 91.2492C87.7483 90.5582 87.9742 89.8232 88.5536 89.5831C89.0643 89.3724 89.5652 89.9555 90.0317 90.2397C90.4049 90.4651 90.8173 90.6268 91.2445 90.715C91.5195 90.7689 91.8092 90.7935 92.0744 90.7003C92.3395 90.6072 92.5703 90.3671 92.5752 90.0927C92.5752 89.9408 92.5261 89.8036 92.4377 89.6811C92.3641 89.5733 92.2708 89.4704 92.1775 89.3773C91.7306 88.9265 91.2543 88.4953 90.7633 88.0935C90.287 87.7015 89.7861 87.3389 89.2706 86.9959C88.9612 86.7901 88.6175 86.5892 88.2443 86.599C87.9546 86.6039 87.6796 86.7411 87.4242 86.8783C86.9529 87.1282 86.3587 87.4761 86.0051 87.8828C85.6909 88.2454 85.5338 88.8824 85.6614 89.3283L85.6712 89.3234Z" fill="#E2AA99"/>
<g opacity="0.2" style="mix-blend-mode:multiply">
<path d="M91.0973 89.7645C91.4361 89.9899 92.1628 89.9801 92.4476 89.6714C92.374 89.5636 92.2807 89.4607 92.1874 89.3676C91.7405 88.9168 91.2642 88.4855 90.7732 88.0837C90.6701 88.1915 90.6062 88.3532 90.5817 88.5003C90.508 88.9756 90.6995 89.495 91.0973 89.7645Z" fill="#D3835B"/>
</g>
<path d="M115.988 76.5343H89.3688V103.098H115.988V76.5343Z" fill="#E6E6E6"/>
<path d="M114.127 78.3964H91.2347V101.241H114.127V78.3964Z" fill="#FFFBF3"/>
<mask id="mask0_2439_1447" style="mask-type:luminance" maskUnits="userSpaceOnUse" x="91" y="78" width="24" height="24">
<path d="M114.127 78.3964H91.2347V101.241H114.127V78.3964Z" fill="white"/>
</mask>
<g mask="url(#mask0_2439_1447)">
<path d="M122.347 104.249H95.4773L108.912 88.1377L122.347 104.249Z" fill="#69A2F9"/>
<path d="M110.518 101.882H83.6482L97.083 85.771L110.518 101.882Z" fill="#97C1FF"/>
</g>
<path d="M107.557 83.6884C107.557 85.3789 106.182 86.751 104.488 86.751C102.794 86.751 101.419 85.3789 101.419 83.6884C101.419 81.9979 102.794 80.6259 104.488 80.6259C106.182 80.6259 107.557 81.9979 107.557 83.6884Z" fill="#97C1FF"/>
<path d="M85.6712 89.3234C85.7744 89.686 86.8841 91.4501 87.3997 92.2635C87.5568 92.5134 87.66 92.6751 87.66 92.6751C87.66 92.6751 87.5814 91.9842 87.6649 91.2492C87.7483 90.5582 87.9742 89.8232 88.5536 89.5831C89.0643 89.3724 89.5652 89.9555 90.0317 90.2397C90.4049 90.4651 90.8173 90.6268 91.2445 90.715C91.5195 90.7689 91.8092 90.7935 92.0744 90.7003C92.3395 90.6072 92.5703 90.3671 92.5752 90.0927C92.5752 89.9408 92.5261 89.8036 92.4377 89.6811C92.3641 89.5733 92.2708 89.4704 92.1775 89.3773C91.7306 88.9265 91.2543 88.4953 90.7633 88.0935C90.287 87.7015 89.7861 87.3389 89.2706 86.9959C88.9612 86.7901 88.6175 86.5892 88.2443 86.599C87.9546 86.6039 87.6796 86.7411 87.4242 86.8783C86.9529 87.1282 86.3587 87.4761 86.0051 87.8828C85.6909 88.2454 85.5338 88.8824 85.6614 89.3283L85.6712 89.3234Z" fill="#E2AA99"/>
<g opacity="0.2" style="mix-blend-mode:multiply">
<path d="M91.0973 89.7645C91.4361 89.9899 92.1628 89.9801 92.4476 89.6714C92.374 89.5636 92.2807 89.4607 92.1874 89.3676C91.7405 88.9168 91.2642 88.4855 90.7732 88.0837C90.6701 88.1915 90.6062 88.3532 90.5817 88.5003C90.508 88.9756 90.6995 89.495 91.0973 89.7645Z" fill="#D3835B"/>
</g>
<path d="M84.9592 98.0897C84.1392 98.0407 83.1522 97.0313 82.4206 95.87C81.6545 94.6548 81.2273 93.5474 81.5416 92.4694C81.8853 92.3714 83.2308 91.7931 83.6236 91.7098C84.4584 94.2383 85.5681 95.2967 86.668 96.6981L84.9592 98.0848V98.0897Z" fill="#FFB441"/>
<mask id="mask1_2439_1447" style="mask-type:luminance" maskUnits="userSpaceOnUse" x="81" y="91" width="6" height="8">
<path d="M84.9592 98.0897C84.1392 98.0407 83.1522 97.0313 82.4206 95.87C81.6545 94.6548 81.2273 93.5474 81.5416 92.4694C81.8853 92.3714 83.2308 91.7931 83.6236 91.7098C84.4584 94.2383 85.4355 95.135 86.668 96.6981L84.9592 98.0848V98.0897Z" fill="white"/>
</mask>
<g mask="url(#mask1_2439_1447)">
<g opacity="0.5" style="mix-blend-mode:multiply">
<path d="M85.4944 98.8198L87.0608 96.3208" stroke="#FFB441" stroke-width="0.5" stroke-miterlimit="10"/>
</g>
<g opacity="0.5" style="mix-blend-mode:multiply">
<path d="M84.4633 98.4916L86.5698 96.0955" stroke="#FFB441" stroke-width="0.5" stroke-miterlimit="10"/>
</g>
<g opacity="0.5" style="mix-blend-mode:multiply">
<path d="M83.8986 97.9133L86.0346 95.6985" stroke="#FFB441" stroke-width="0.5" stroke-miterlimit="10"/>
</g>
<g opacity="0.5" style="mix-blend-mode:multiply">
<path d="M83.1915 97.4087L85.7056 95.1987" stroke="#FFB441" stroke-width="0.5" stroke-miterlimit="10"/>
</g>
<g opacity="0.5" style="mix-blend-mode:multiply">
<path d="M82.9362 96.5756L85.2686 94.7283" stroke="#FFB441" stroke-width="0.5" stroke-miterlimit="10"/>
</g>
<g opacity="0.5" style="mix-blend-mode:multiply">
<path d="M82.4156 95.8455L84.9543 94.1794" stroke="#FFB441" stroke-width="0.5" stroke-miterlimit="10"/>
</g>
<g opacity="0.5" style="mix-blend-mode:multiply">
<path d="M81.7281 95.1497L84.7038 93.6013" stroke="#FFB441" stroke-width="0.5" stroke-miterlimit="10"/>
</g>
<g opacity="0.5" style="mix-blend-mode:multiply">
<path d="M81.4532 94.3509L84.3798 93.1063" stroke="#FFB441" stroke-width="0.5" stroke-miterlimit="10"/>
</g>
<g opacity="0.5" style="mix-blend-mode:multiply">
<path d="M81.4287 93.4591L84.1491 92.5477" stroke="#FFB441" stroke-width="0.5" stroke-miterlimit="10"/>
</g>
<g opacity="0.5" style="mix-blend-mode:multiply">
<path d="M81.3304 92.6359L84.1981 91.9205" stroke="#FFB441" stroke-width="0.5" stroke-miterlimit="10"/>
</g>
</g>
<path d="M56.0518 118.082L56.8277 116.524V116.514L56.2482 116.195C56.2482 116.195 56.2482 116.195 56.2433 116.195L55.6099 116.372C55.6099 116.372 55.605 116.377 55.605 116.382L56.0616 118.082H56.0518Z" fill="#FFD3BC"/>
<path d="M56.0518 118.082L56.2826 117.626C56.1647 117.572 56.042 117.553 55.9143 117.587L56.0518 118.082Z" fill="#535E5E"/>
<path d="M56.4693 103.298C56.484 103.137 57.6969 103.073 57.6674 103.411C57.4562 105.842 57.0781 113.902 56.8277 116.524C56.7639 116.602 56.7 116.676 56.6068 116.769C56.5675 116.808 56.5036 116.798 56.4791 116.749C56.4103 116.612 56.3711 116.514 56.2974 116.367C56.2679 116.313 56.1894 116.308 56.1599 116.367C56.0863 116.499 56.0175 116.617 55.9537 116.705C55.9242 116.754 55.8555 116.749 55.8211 116.705C55.7131 116.563 55.6885 116.524 55.5952 116.382C55.5952 116.382 55.5952 116.382 55.5952 116.377C55.7573 113.838 56.2434 105.704 56.4643 103.298H56.4693Z" fill="#FA5069"/>
<path d="M56.3711 104.411C56.3907 104.171 56.4104 103.931 56.43 103.695C56.43 103.695 56.43 103.686 56.4398 103.686L57.6281 103.769C57.6281 103.769 57.638 103.769 57.638 103.779C57.6183 104.014 57.6036 104.254 57.584 104.494C57.584 104.494 57.584 104.504 57.5741 104.504L56.3809 104.421C56.3809 104.421 56.3711 104.421 56.3711 104.411Z" fill="#999999"/>
<path d="M57.5888 104.362L56.4005 104.278" stroke="#212121" stroke-width="0.14" stroke-linecap="round" stroke-linejoin="round"/>
<path d="M57.5986 104.205L56.4103 104.122" stroke="#212121" stroke-width="0.14" stroke-linecap="round" stroke-linejoin="round"/>
<path d="M57.6134 104.033L56.425 103.95" stroke="#212121" stroke-width="0.14" stroke-linecap="round" stroke-linejoin="round"/>
<path d="M56.4398 103.686C56.4398 103.686 56.4299 103.686 56.4299 103.676C56.4398 103.548 56.4545 103.421 56.4643 103.294C56.479 103.132 56.5576 102.99 56.6755 102.892C56.7835 102.804 56.921 102.75 57.0683 102.75C57.4267 102.75 57.6919 103.088 57.6624 103.445C57.6526 103.548 57.6428 103.656 57.6379 103.759C57.6379 103.759 57.6379 103.769 57.6281 103.769L56.4398 103.686Z" fill="#FFC5C7"/>
<path d="M56.2335 116.284C56.4054 113.745 56.7737 107.483 56.9701 104.479" stroke="#212121" stroke-width="0.14" stroke-linecap="round" stroke-linejoin="round"/>
<path d="M52.1776 106.067C53.7637 105.616 55.4479 105.954 57.0536 106.297C57.2893 106.346 57.7558 106.763 57.908 106.949C57.8491 107.155 57.5152 108.017 57.3188 108.105C56.8916 108.297 56.3613 107.38 55.9341 107.571C54.0239 108.424 51.9763 109.296 49.9238 108.968C49.6537 108.924 49.3689 108.85 49.1872 108.649C48.9515 108.39 49.0104 108.169 49.0988 107.846C49.2167 107.429 49.5506 107.415 49.9336 107.243C50.6947 106.9 51.3674 106.288 52.1776 106.057V106.067Z" fill="#D3835B"/>
<path d="M49.6488 107.434C48.9024 109.208 48.6962 111.021 48.264 112.873C49.0153 113.55 49.5358 114.128 51.1317 114.569C52.3102 114.892 56.5527 115.358 57.1813 115.122L58.3794 106.611C57.4661 106.498 55.0354 105.881 54.1172 105.979C53.4101 106.052 53.0517 105.964 52.3691 106.16C51.3478 106.454 50.6701 107.14 49.6488 107.434Z" fill="#E2AA99"/>
<path d="M59.5776 107.101C60.0735 107.395 60.4614 107.934 60.4074 108.507C60.3534 109.081 59.7249 109.59 59.1847 109.389C59.6954 109.453 60.0735 109.987 59.9999 110.492C59.9262 110.997 59.445 111.408 58.9343 111.438C59.3517 111.663 59.5579 112.217 59.3861 112.667C59.2142 113.118 58.6888 113.402 58.2223 113.304C58.6053 113.437 58.8803 113.824 58.8852 114.226C58.8852 114.627 58.625 115.024 58.2469 115.181C57.9866 115.289 57.692 115.279 57.4121 115.274C57.1175 115.264 53.9405 114.774 53.6016 114.588C53.2628 114.402 53.0124 113.99 53.1499 113.623C53.3217 113.148 54.2498 113.182 55.5167 113.108C54.8931 113.035 54.2842 112.873 53.7097 112.623C53.4838 112.525 53.253 112.408 53.1204 112.197C52.8798 111.82 53.0811 111.286 53.4396 111.006C53.7981 110.727 54.8783 110.644 55.3252 110.556C54.5395 110.649 53.1793 109.845 53.3267 109.076C53.474 108.306 54.5444 107.905 55.7426 108.233C55.0993 108.007 54.3873 107.767 54.1516 107.405C53.9601 107.116 54.0927 106.694 54.3627 106.469C54.6328 106.243 55.0011 106.17 55.3546 106.155C56.3858 106.106 58.7133 106.577 59.5972 107.106L59.5776 107.101Z" fill="#E2AA99"/>
<path d="M58.2174 113.304C58.2174 113.304 57.5299 113.304 55.502 113.104C55.502 113.104 56.867 113.638 58.2174 113.304Z" fill="#D3835B"/>
<path d="M58.9294 111.438C58.9294 111.438 57.0831 110.742 55.3055 110.556C55.3055 110.556 58.2174 111.442 58.9294 111.438Z" fill="#D3835B"/>
<path d="M59.391 109.448C59.391 109.448 56.6363 108.243 55.5806 108.184C55.5806 108.184 58.6495 109.487 59.391 109.448Z" fill="#D3835B"/>
<path d="M39.6905 67.9248C32.7472 66.2637 22.1703 68.4442 20.3584 76.4657C19.8133 78.8716 16.214 101.113 19.0178 105.234C23.0149 111.109 40.6922 113.383 46.4226 113.015C47.4047 109.963 47.6895 106.655 47.7533 106.591C40.2847 102.318 33.2726 99.7508 27.7779 98.5846C28.9466 93.219 29.4131 87.6231 29.6144 80.6895" fill="#FFB441"/>
<path d="M46.4423 113.035C45.8727 112.447 45.8285 111.036 46.074 109.688C46.3342 108.277 46.7663 107.17 47.7239 106.586C48.043 106.743 49.4278 107.228 49.7715 107.429C48.6765 109.855 48.7796 111.389 48.6421 113.162L46.4423 113.035Z" fill="#FFB441"/>
<mask id="mask2_2439_1447" style="mask-type:luminance" maskUnits="userSpaceOnUse" x="45" y="106" width="5" height="8">
<path d="M46.4423 113.035C45.8727 112.447 45.8285 111.036 46.074 109.688C46.3342 108.277 46.7663 107.17 47.7239 106.586C48.043 106.743 49.4278 107.228 49.7715 107.429C48.6765 109.855 48.7943 111.178 48.6421 113.162L46.4423 113.035Z" fill="white"/>
</mask>
<g mask="url(#mask2_2439_1447)">
<g opacity="0.5" style="mix-blend-mode:multiply">
<path d="M46.3391 113.932L49.1871 113.148" stroke="#FFB441" stroke-width="0.5" stroke-miterlimit="10"/>
</g>
<g opacity="0.5" style="mix-blend-mode:multiply">
<path d="M45.799 112.996L48.9809 112.648" stroke="#FFB441" stroke-width="0.5" stroke-miterlimit="10"/>
</g>
<g opacity="0.5" style="mix-blend-mode:multiply">
<path d="M45.7793 112.192L48.8532 111.996" stroke="#FFB441" stroke-width="0.5" stroke-miterlimit="10"/>
</g>
<g opacity="0.5" style="mix-blend-mode:multiply">
<path d="M45.5977 111.344L48.9465 111.403" stroke="#FFB441" stroke-width="0.5" stroke-miterlimit="10"/>
</g>
<g opacity="0.5" style="mix-blend-mode:multiply">
<path d="M45.9708 110.555L48.9465 110.761" stroke="#FFB441" stroke-width="0.5" stroke-miterlimit="10"/>
</g>
<g opacity="0.5" style="mix-blend-mode:multiply">
<path d="M46.0789 109.664L49.084 110.144" stroke="#FFB441" stroke-width="0.5" stroke-miterlimit="10"/>
</g>
<g opacity="0.5" style="mix-blend-mode:multiply">
<path d="M46.0446 108.688L49.2903 109.556" stroke="#FFB441" stroke-width="0.5" stroke-miterlimit="10"/>
</g>
<g opacity="0.5" style="mix-blend-mode:multiply">
<path d="M46.3833 107.919L49.3835 108.963" stroke="#FFB441" stroke-width="0.5" stroke-miterlimit="10"/>
</g>
<g opacity="0.5" style="mix-blend-mode:multiply">
<path d="M46.9677 107.238L49.5898 108.399" stroke="#FFB441" stroke-width="0.5" stroke-miterlimit="10"/>
</g>
<g opacity="0.5" style="mix-blend-mode:multiply">
<path d="M47.4537 106.567L50.0513 107.973" stroke="#FFB441" stroke-width="0.5" stroke-miterlimit="10"/>
</g>
</g>
<path d="M48.6569 69.3263C47.7534 70.1691 44.434 70.5954 42.4109 70.1887C40.2945 69.7575 37.913 68.9588 37.0586 67.5035C37.309 67.0282 38.2813 65.3621 38.6005 64.8525C42.2292 66.5725 44.9938 66.8224 47.8663 66.499L48.6569 69.3312V69.3263Z" fill="#FFB441"/>
<mask id="mask3_2439_1447" style="mask-type:luminance" maskUnits="userSpaceOnUse" x="37" y="64" width="12" height="7">
<path d="M48.6569 69.3263C47.7534 70.1691 44.434 70.5954 42.4109 70.1887C40.2945 69.7575 37.913 68.9588 37.0586 67.5035C37.309 67.0282 38.2813 65.3621 38.6005 64.8525C42.2292 66.5725 44.9938 66.8224 47.8663 66.499L48.6569 69.3312V69.3263Z" fill="white"/>
</mask>
<g mask="url(#mask3_2439_1447)">
<g opacity="0.5" style="mix-blend-mode:multiply">
<path d="M48.2985 70.1936L47.2035 65.8914" stroke="#FFB441" stroke-width="0.5" stroke-miterlimit="10"/>
</g>
<g opacity="0.5" style="mix-blend-mode:multiply">
<path d="M47.174 70.4387L46.4424 66.1903" stroke="#FFB441" stroke-width="0.5" stroke-miterlimit="10"/>
</g>
<g opacity="0.5" style="mix-blend-mode:multiply">
<path d="M45.8187 70.566L45.4553 66.3617" stroke="#FFB441" stroke-width="0.5" stroke-miterlimit="10"/>
</g>
<g opacity="0.5" style="mix-blend-mode:multiply">
<path d="M44.5568 70.6003L44.5666 66.2001" stroke="#FFB441" stroke-width="0.5" stroke-miterlimit="10"/>
</g>
<g opacity="0.5" style="mix-blend-mode:multiply">
<path d="M43.1965 70.6444L43.5992 66.1853" stroke="#FFB441" stroke-width="0.5" stroke-miterlimit="10"/>
</g>
<g opacity="0.5" style="mix-blend-mode:multiply">
<path d="M41.861 70.4582L42.6712 65.96" stroke="#FFB441" stroke-width="0.5" stroke-miterlimit="10"/>
</g>
<g opacity="0.5" style="mix-blend-mode:multiply">
<path d="M40.5597 69.9976L41.7873 65.6316" stroke="#FFB441" stroke-width="0.5" stroke-miterlimit="10"/>
</g>
<g opacity="0.5" style="mix-blend-mode:multiply">
<path d="M39.4352 69.4243L40.9034 65.47" stroke="#FFB441" stroke-width="0.5" stroke-miterlimit="10"/>
</g>
<g opacity="0.5" style="mix-blend-mode:multiply">
<path d="M38.2273 69.047L40.0589 65.1416" stroke="#FFB441" stroke-width="0.5" stroke-miterlimit="10"/>
</g>
<g opacity="0.5" style="mix-blend-mode:multiply">
<path d="M37.2305 68.2973L39.4254 64.4409" stroke="#FFB441" stroke-width="0.5" stroke-miterlimit="10"/>
</g>
</g>
<path d="M82.5189 59.7368H62.9216C61.2239 59.7368 59.8477 61.1102 59.8477 62.8043V72.5407C59.8477 74.2348 61.2239 75.6082 62.9216 75.6082H82.5189C84.2165 75.6082 85.5927 74.2348 85.5927 72.5407V62.8043C85.5927 61.1102 84.2165 59.7368 82.5189 59.7368Z" fill="#FA5069"/>
<path d="M63.9969 64.9211H81.4386" stroke="#FFFBF3" stroke-width="1.39" stroke-miterlimit="10"/>
<path d="M63.9969 67.479H81.4386" stroke="#FFFBF3" stroke-width="1.39" stroke-miterlimit="10"/>
<path d="M63.9969 70.0369H81.4386" stroke="#FFFBF3" stroke-width="1.39" stroke-miterlimit="10"/>
<path d="M57.2255 64.4409H60.157V69.0127L56.7394 65.6022C56.3073 65.171 56.6117 64.4409 57.2206 64.4409H57.2255Z" fill="#FA5069"/>
<path d="M60.7708 30.6255H105.288V49.9955C105.288 52.5288 103.226 54.5869 100.687 54.5869H65.3718C62.8331 54.5869 60.7708 52.5288 60.7708 49.9955V30.6255Z" fill="#69A2F9"/>
<path d="M105.298 30.547V30.8263H60.761V30.547C60.761 29.9247 60.8837 29.3269 61.1047 28.7781C61.802 27.0484 63.5059 25.8234 65.4897 25.8234H100.569C103.02 25.8234 105.033 27.6805 105.274 30.0619C105.288 30.2236 105.298 30.3804 105.298 30.547Z" fill="#E6E6E6"/>
<path d="M94.7065 28.4939C94.7065 29.0329 94.2694 29.4739 93.7244 29.4739C93.1793 29.4739 92.7423 29.0378 92.7423 28.4939C92.7423 27.95 93.1793 27.5139 93.7244 27.5139C94.2694 27.5139 94.7065 27.95 94.7065 28.4939Z" fill="#49E891"/>
<path d="M97.5496 28.4939C97.5496 29.0329 97.1126 29.4739 96.5675 29.4739C96.0225 29.4739 95.5854 29.0378 95.5854 28.4939C95.5854 27.95 96.0225 27.5139 96.5675 27.5139C97.1126 27.5139 97.5496 27.95 97.5496 28.4939Z" fill="#FFA42C"/>
<path d="M100.388 28.4939C100.388 29.0329 99.9507 29.4739 99.4057 29.4739C98.8606 29.4739 98.4236 29.0378 98.4236 28.4939C98.4236 27.95 98.8606 27.5139 99.4057 27.5139C99.9507 27.5139 100.388 27.95 100.388 28.4939Z" fill="#FF6C4A"/>
<path d="M74.1123 49.5248H62.7251V38.9651L66.0347 38.0047L67.4489 34.2415H74.1123V49.5248Z" fill="white"/>
<path d="M67.4489 34.2368V38.9654H62.7251L67.4489 34.2368Z" fill="#E6E6E6"/>
<path d="M68.4359 41.4889V47.5503" stroke="#69A2F9" stroke-width="2.09" stroke-miterlimit="10"/>
<path d="M66.3784 43.6842L68.4211 41.1655L70.4589 43.6842" stroke="#69A2F9" stroke-width="2.09" stroke-miterlimit="10"/>
<path d="M108.028 34.2662H76.6411V49.5202H108.028V34.2662Z" fill="#E6E6E6"/>
<path d="M78.9735 36.9761H96.4102" stroke="#69A2F9" stroke-width="1.42" stroke-miterlimit="10"/>
<path d="M78.9735 39.5291H96.4102" stroke="#69A2F9" stroke-width="1.42" stroke-miterlimit="10"/>
<path d="M78.9735 42.0869H96.4102" stroke="#69A2F9" stroke-width="1.42" stroke-miterlimit="10"/>
<path d="M78.9735 44.6447H105.686" stroke="#69A2F9" stroke-width="1.42" stroke-miterlimit="10"/>
<path d="M78.9735 47.2025H105.686" stroke="#69A2F9" stroke-width="1.42" stroke-miterlimit="10"/>
<path d="M105.696 39.9357C105.696 41.8859 104.11 43.4686 102.155 43.4686C100.201 43.4686 98.615 41.8859 98.615 39.9357C98.615 37.9854 100.201 36.4027 102.155 36.4027C104.11 36.4027 105.696 37.9854 105.696 39.9357Z" fill="#FA5069"/>
<path d="M99.9457 39.4457L101.797 41.7683L104.969 36.6477" stroke="white" stroke-width="2.09" stroke-miterlimit="10"/>
<path d="M124.11 101.098H168.627V110.889C168.627 113.422 166.565 115.48 164.026 115.48H128.711C126.172 115.48 124.11 113.422 124.11 110.889V101.098Z" fill="#69A2F9"/>
<path d="M168.637 101.02V101.299H124.1V101.02C124.1 100.398 124.223 99.7998 124.444 99.251C125.141 97.5213 126.845 96.2963 128.829 96.2963H163.908C166.359 96.2963 168.372 98.1534 168.612 100.535C168.627 100.697 168.637 100.853 168.637 101.02Z" fill="#E6E6E6"/>
<path d="M158.05 98.9668C158.05 99.5058 157.613 99.9468 157.068 99.9468C156.523 99.9468 156.086 99.5107 156.086 98.9668C156.086 98.4229 156.523 97.9868 157.068 97.9868C157.613 97.9868 158.05 98.4229 158.05 98.9668Z" fill="#49E891"/>
<path d="M160.888 98.9668C160.888 99.5058 160.451 99.9468 159.906 99.9468C159.361 99.9468 158.924 99.5107 158.924 98.9668C158.924 98.4229 159.361 97.9868 159.906 97.9868C160.451 97.9868 160.888 98.4229 160.888 98.9668Z" fill="#FFA42C"/>
<path d="M163.731 98.9668C163.731 99.5058 163.294 99.9468 162.749 99.9468C162.204 99.9468 161.767 99.5107 161.767 98.9668C161.767 98.4229 162.204 97.9868 162.749 97.9868C163.294 97.9868 163.731 98.4229 163.731 98.9668Z" fill="#FF6C4A"/>
<path d="M166.069 104.553H127.046V111.834H166.069V104.553Z" fill="#E6E6E6"/>
<path d="M129.585 106.915H163.525" stroke="#69A2F9" stroke-width="1.42" stroke-miterlimit="10"/>
<path d="M129.585 109.473H163.525" stroke="#69A2F9" stroke-width="1.42" stroke-miterlimit="10"/>
<path d="M42.897 27.6707C42.0181 27.6707 41.1882 27.8863 40.4566 28.2587C39.337 26.2497 37.1863 24.8875 34.7163 24.8875C32.2464 24.8875 30.1202 26.235 28.9958 28.2244C28.4949 28.0039 27.9449 27.8814 27.3606 27.8814C25.2197 27.8814 23.4667 29.5327 23.3096 31.63C23.2948 31.63 23.285 31.63 23.2703 31.63C21.4534 31.63 19.9852 33.1 19.9852 34.9081C19.9852 36.7162 21.5615 38.2892 23.339 38.3333H23.4028C23.4078 38.3333 23.4127 38.3333 23.4225 38.3333C23.4323 38.3333 23.4372 38.3333 23.447 38.3333C23.447 38.3333 42.3323 38.4411 42.9069 38.4411C45.8874 38.4411 48.3034 36.0302 48.3034 33.0559C48.3034 30.0815 45.8874 27.6707 42.9069 27.6707H42.897Z" fill="#BBD8F9"/>
<path d="M37.6299 35.8231C39.3692 34.0874 39.3692 31.2734 37.6299 29.5378C35.8906 27.8021 33.0707 27.8021 31.3314 29.5378C29.5921 31.2734 29.5921 34.0874 31.3314 35.8231C33.0707 37.5587 35.8906 37.5587 37.6299 35.8231Z" fill="#FA5069"/>
<path d="M34.4954 30.9684V35.3295" stroke="white" stroke-width="1.39" stroke-miterlimit="10"/>
<path d="M32.6981 32.8892L34.4806 30.6891L36.268 32.8892" stroke="white" stroke-width="1.39" stroke-miterlimit="10"/>
<path d="M190.149 113.407H173.808V103.597L190.149 103.544V113.407Z" fill="white"/>
<path d="M182.042 110.227L173.808 103.597L190.149 103.544L182.042 110.227Z" fill="#E6E6E6"/>
<path d="M181.959 105.175C184.419 105.175 186.413 103.185 186.413 100.731C186.413 98.2763 184.419 96.2865 181.959 96.2865C179.499 96.2865 177.505 98.2763 177.505 100.731C177.505 103.185 179.499 105.175 181.959 105.175Z" fill="#FA5069"/>
<path d="M181.944 102.769V98.4082" stroke="white" stroke-width="1.39" stroke-miterlimit="10"/>
<path d="M183.746 100.848L181.959 103.049L180.176 100.848" stroke="white" stroke-width="1.39" stroke-miterlimit="10"/>
<path d="M184.817 25.1864H130.071C127.052 25.1864 124.606 27.6281 124.606 30.6402V85.4035C124.606 88.4155 127.052 90.8573 130.071 90.8573H184.817C187.835 90.8573 190.282 88.4155 190.282 85.4035V30.6402C190.282 27.6281 187.835 25.1864 184.817 25.1864Z" fill="#FFFBF3"/>
<mask id="mask4_2439_1447" style="mask-type:luminance" maskUnits="userSpaceOnUse" x="124" y="25" width="67" height="66">
<path d="M184.817 25.1864H130.071C127.052 25.1864 124.606 27.6281 124.606 30.6402V85.4035C124.606 88.4155 127.052 90.8573 130.071 90.8573H184.817C187.835 90.8573 190.282 88.4155 190.282 85.4035V30.6402C190.282 27.6281 187.835 25.1864 184.817 25.1864Z" fill="white"/>
</mask>
<g mask="url(#mask4_2439_1447)">
<path d="M156.032 28.9791C162.013 26.7006 167.473 29.2094 168.966 32.6444C169.535 33.9576 169.864 36.3831 170.527 38.402C172.202 43.5275 174.117 47.9571 173.636 48.1972C172.349 48.8489 161.699 49.4271 161.699 49.4271C161.699 49.4271 150.169 50.2994 150.085 49.878C149.698 47.9375 151.014 42.3955 151.063 40.999C151.225 36.1626 151.087 30.8607 156.032 28.9791Z" fill="#512018"/>
<path d="M159.896 53.9548C159.857 50.9903 159.558 46.5851 159.558 46.5851C159.558 46.5851 165.376 44.434 167.237 43.7087C167.493 44.8309 167.679 45.9775 167.846 47.178C168.161 49.4712 168.386 51.9752 168.814 54.9397C168.922 61.7067 162.622 65.4504 159.607 66.1119C159.783 66.0727 159.921 55.4297 159.901 53.9597L159.896 53.9548Z" fill="#F3B7A4"/>
<g opacity="0.3" style="mix-blend-mode:multiply">
<path d="M168.003 48.305C167.527 49.0841 166.889 50.2161 165.077 51.6469C163.132 53.1855 160 53.9009 159.896 53.9548C159.857 50.9903 159.558 46.5851 159.558 46.5851C159.558 46.5851 165.411 44.3654 167.267 43.6353C167.522 44.7574 167.841 47.1045 168.003 48.305Z" fill="#F3B7A4"/>
</g>
<path d="M168.239 42.4983C167.488 45.1542 167.223 47.2661 164.738 48.545C162.253 49.824 159.229 50.0445 156.582 49.133C155.168 48.643 154.161 47.7757 153.528 46.4331C153.366 46.0803 153.258 45.7128 153.179 45.3355C153.179 45.3159 153.169 45.2963 153.169 45.2767C153.096 44.8798 153.056 44.4829 153.027 44.0811C153.002 43.743 152.983 43.4049 152.968 43.0667C152.953 42.6796 152.943 42.1749 152.943 41.5918V41.5771C152.943 38.7106 152.771 35.0796 153.154 33.2078L167.979 32.8893L168.244 42.4983H168.239Z" fill="#F3B7A4"/>
<path d="M154.799 38.9557C155.163 38.8087 155.605 38.7842 155.978 38.9067C156.209 38.9802 156.435 39.137 156.454 39.3379C156.459 39.3967 156.444 39.4604 156.385 39.4898C156.351 39.5094 156.307 39.5143 156.263 39.5143C155.924 39.529 155.585 39.4996 155.251 39.5339C154.981 39.5633 154.721 39.627 154.48 39.7299C154.353 39.7838 153.827 39.9553 154.097 39.5241C154.259 39.2693 154.47 39.088 154.799 38.9557Z" fill="#512018"/>
<path d="M162.322 38.9557C161.959 38.8087 161.517 38.7842 161.144 38.9067C160.913 38.9802 160.687 39.137 160.667 39.3379C160.662 39.3967 160.677 39.4604 160.736 39.4898C160.77 39.5094 160.815 39.5143 160.859 39.5143C161.198 39.529 161.537 39.4996 161.87 39.5339C162.14 39.5633 162.401 39.627 162.641 39.7299C162.769 39.7838 163.294 39.9553 163.024 39.5241C162.862 39.2693 162.651 39.088 162.322 38.9557Z" fill="#512018"/>
<path d="M154.839 41.0822C154.888 41.2195 155.016 41.3077 155.143 41.3616C155.404 41.4694 155.742 41.44 155.904 41.195C156.16 40.8127 156.057 40.2688 155.438 40.1953C155.006 40.1414 154.691 40.6902 154.839 41.0822Z" fill="#111111"/>
<path d="M161.08 41.0822C161.129 41.2195 161.257 41.3077 161.384 41.3616C161.645 41.4694 161.983 41.44 162.145 41.195C162.401 40.8127 162.298 40.2688 161.679 40.1953C161.247 40.1414 160.933 40.6902 161.08 41.0822Z" fill="#111111"/>
<g style="mix-blend-mode:multiply" opacity="0.3">
<path d="M165.715 41.3958C166.329 41.6065 166.697 42.1897 166.776 42.7728C166.864 43.4441 166.609 44.1644 166.039 44.6103C165.475 45.0611 164.596 45.1983 163.923 44.8896C163.344 44.625 162.97 44.0664 162.916 43.4882C162.862 42.9247 163.132 42.1505 163.579 41.7291C164.07 41.2684 165.082 41.1753 165.715 41.3909V41.3958Z" fill="#F3B7A4"/>
</g>
<path d="M166.579 39.7984C166.933 38.4068 167.851 37.6571 168.932 37.6865C169.084 37.6865 169.241 37.7061 169.383 37.7698C169.521 37.8335 169.629 37.9364 169.727 38.054C170.164 38.5832 170.262 39.3084 170.272 39.9895C170.282 40.6069 170.213 41.2587 169.869 41.7781C169.54 42.273 168.966 42.5964 168.367 42.6258C167.768 42.6552 167.164 42.3906 166.781 41.9349" fill="#F3B7A4"/>
<g style="mix-blend-mode:multiply">
<path d="M167.822 41.6016C167.94 41.2243 168.112 40.8617 168.372 40.5628C168.632 40.2639 168.981 40.0336 169.373 39.9503" stroke="#E9B0A7" stroke-width="0.38" stroke-linecap="round" stroke-linejoin="round"/>
<path d="M168.288 39.4163C168.146 39.7642 168.195 40.1856 168.421 40.4894" stroke="#E9B0A7" stroke-width="0.38" stroke-linecap="round" stroke-linejoin="round"/>
</g>
<g opacity="0.3" style="mix-blend-mode:multiply">
<path d="M153.935 44.9092C153.714 45.0807 153.449 45.213 153.164 45.2816C153.091 44.8847 153.051 44.4878 153.022 44.086C152.997 43.7479 152.978 43.4098 152.963 43.0717C152.948 42.6845 152.938 42.1798 152.938 41.5967V41.582C153.184 41.582 153.415 41.6261 153.611 41.6898C154.225 41.8956 154.593 42.4836 154.672 43.0668C154.76 43.7381 154.505 44.4584 153.935 44.9092Z" fill="#F3B7A4"/>
</g>
<path d="M166.417 36.3929C166.417 36.3929 166.118 39.8327 166.653 40.9794C166.82 41.3371 167.085 40.5727 167.296 39.8034C167.522 38.9605 167.699 38.054 168.799 37.6816L168.215 31.973C168.215 31.973 163.525 32.5169 166.422 36.3978L166.417 36.3929Z" fill="#512018"/>
<path d="M158.315 44.8701C159.155 45.0122 160.068 44.581 160.491 43.8411" stroke="#E9B0A7" stroke-width="0.38" stroke-linecap="round" stroke-linejoin="round"/>
<path d="M158.752 38.7792C158.752 39.4701 158.752 40.161 158.747 40.8519C158.747 41.1116 158.747 41.3713 158.674 41.6212C158.546 42.0671 158.207 42.4983 158.345 42.9393C158.423 43.1892 158.703 43.2186 158.963 43.2431" stroke="#E9B0A7" stroke-width="0.38" stroke-linecap="round" stroke-linejoin="round"/>
<path d="M156.759 66.597C156.331 69.0274 146.683 84.0413 146.683 84.0413C146.683 84.0413 143.564 80.0477 142.347 78.0289C150.184 64.9408 149.005 64.5291 153.081 59.8349C154.353 58.3648 157.058 56.9193 158.904 56.2578L156.764 66.5921L156.759 66.597Z" fill="#F3B7A4"/>
<path d="M147.252 76.4461C144.753 71.5412 141.615 65.8326 137.662 56.983C136.381 57.6298 136.518 56.8409 133.788 58.2669C135.57 63.0542 139.347 80.964 144.37 84.4235C148.313 87.143 151.917 73.2121 147.252 76.4412V76.4461Z" fill="#F3B7A4"/>
<path d="M132.02 52.9159C132.138 53.3177 132.865 53.4892 133.189 53.3226C133.557 53.1315 133.714 52.9894 133.675 52.3769C133.621 51.588 132.501 48.7214 132.29 48.2069C131.981 47.3102 131.578 46.8594 131.033 46.9917C130.488 47.1191 130.311 47.8345 130.601 48.6822C130.41 48.2265 131.784 52.2887 132.025 52.9159H132.02Z" fill="#F3B7A4"/>
<path d="M133.675 52.4504C133.744 52.8817 134.49 53.3521 134.849 53.2247C135.256 53.0777 135.443 52.9454 135.477 52.3034C135.526 51.4753 134.603 47.668 134.451 47.1094C134.25 46.1391 133.891 45.6148 133.307 45.6785C132.722 45.7422 132.443 46.4577 132.629 47.3789C132.492 46.8791 133.508 51.7693 133.67 52.4504H133.675Z" fill="#F3B7A4"/>
<path d="M130.685 53.4403C130.817 53.7441 131.382 53.9058 131.622 53.7392C131.893 53.553 132.079 53.3619 131.986 52.8816C131.863 52.2593 130.675 50.2797 130.454 49.8975C130.12 49.2164 129.752 48.9028 129.334 49.0596C128.917 49.2164 128.848 49.7995 129.162 50.4414C128.966 50.0984 130.434 52.9649 130.685 53.4403Z" fill="#F3B7A4"/>
<path d="M135.251 51.3969C135.192 51.8183 135.61 52.1515 135.983 52.1319C136.4 52.1074 136.714 52.0682 136.827 51.4508C137.024 50.3679 137.043 48.3197 137.058 47.7561C136.955 46.6144 136.955 46.2126 136.395 46.1048C135.836 46.0019 135.335 46.3498 135.34 47.5601C135.31 48.4961 135.295 50.7109 135.256 51.392L135.251 51.3969Z" fill="#F3B7A4"/>
<path d="M135.747 52.671C135.723 52.377 136.955 50.0495 136.955 50.0495C136.955 50.0495 136.665 52.4162 137.633 51.9654C138.026 51.7841 138.423 51.1373 138.684 50.8041C138.895 50.5346 139.15 50.3043 139.44 50.123C139.626 50.0054 139.833 49.9074 140.054 49.9025C140.274 49.9025 140.505 50.0103 140.589 50.2112C140.633 50.319 140.633 50.4366 140.603 50.5493C140.579 50.6522 140.54 50.7502 140.495 50.8433C140.294 51.299 140.063 51.74 139.813 52.1712C139.572 52.5877 139.307 52.9944 139.022 53.3864C138.85 53.6216 137.731 55.7189 137.451 55.8169C137.235 55.8904 135.767 53.0336 135.737 52.671H135.747Z" fill="#F3B7A4"/>
<path d="M137.731 57.1006L133.842 58.3991C133.842 58.3991 132.133 56.689 130.464 52.9502C130.405 52.8179 133.434 51.0637 134.657 50.9314C135.045 50.8873 135.472 50.8971 135.782 51.1323C136.007 51.3038 136.14 51.5635 136.297 51.7938C136.548 52.1515 136.194 51.5635 136.577 51.7742C136.999 52.0045 137.476 52.127 137.898 52.3524C138.271 52.5484 139.567 52.5729 139.567 52.5729L137.721 57.1104L137.731 57.1006Z" fill="#F3B7A4"/>
<path d="M155.546 37.5493C156.719 36.829 157.726 35.8686 158.718 34.9131C159.106 36.0499 160.093 36.8878 161.158 37.4415C162.789 38.2892 164.694 38.5882 166.506 38.2843C167.154 38.1765 167.846 37.9462 168.175 37.3778C168.367 37.0446 168.401 36.6428 168.372 36.2606C168.323 35.5305 168.082 34.82 167.753 34.1634C166.859 32.37 165.303 30.9146 163.447 30.1453C161.595 29.376 159.459 29.2976 157.554 29.9248C156.189 30.3756 154.962 31.1694 153.871 32.1004C153.272 32.6101 152.708 33.1736 152.31 33.8498C151.932 34.4917 151.721 35.2169 151.524 35.9372C151.323 36.6771 150.96 38.3333 151.976 38.6078C153.051 38.9018 154.667 38.0785 155.541 37.5395L155.546 37.5493Z" fill="#512018"/>
<path d="M168.828 41.7389C168.509 41.8271 168.332 42.175 168.254 42.4984C168.18 42.8071 168.156 43.1403 168.264 43.4392C168.372 43.7381 168.642 43.9929 168.956 44.0174C169.285 44.0468 169.604 43.8165 169.742 43.5127C169.879 43.2089 169.86 42.8561 169.752 42.5425" stroke="#FCC070" stroke-width="0.76" stroke-linecap="round" stroke-linejoin="round"/>
<path d="M181.232 92.2343C180.284 92.3029 171.544 92.2637 164.365 92.2147C159.563 92.1804 155.462 92.1461 154.849 92.1412C156.307 86.9863 157.554 80.7583 157.554 80.7583L157.014 74.0256C157.014 74.0256 155.742 69.6057 155.408 67.5134L156.567 56.7528L159.882 55.2338C160.5 57.6593 160.869 63.1082 161.92 63.1082C163.511 63.1082 166.58 56.5127 168.612 53.411C168.711 53.3864 170.694 53.3423 172.354 53.3325C173.577 53.3227 174.618 53.3424 174.593 53.4159C172.192 60.2466 177.829 66.896 177.829 66.896C177.142 71.8843 176.773 80.2879 176.773 80.2879C176.773 80.2879 180.81 88.3044 181.227 92.2392L181.232 92.2343Z" fill="#FF9100"/>
<path d="M155.453 67.2831C155.04 68.758 154.971 70.4534 155.526 71.8843C156.081 73.3151 157.26 74.5352 158.738 74.9517" fill="#FF9100"/>
<path d="M159.892 55.2387L157.628 65.8571C157.343 66.8862 155.389 70.8503 152.973 74.4519C152.865 74.3343 148.529 69.3656 147.311 67.0381C149.84 62.8534 151.112 60.8983 153.911 58.2277C155.32 56.8851 157.996 55.7189 159.892 55.2338V55.2387Z" fill="#FF9100"/>
<g opacity="0.3" style="mix-blend-mode:multiply">
<path d="M168.612 73.7365C169.094 73.7022 169.594 73.663 170.041 73.7022C170.488 73.7414 170.886 73.8639 170.886 74.0403C170.886 74.1775 170.65 74.3196 170.424 74.4421C169.742 74.8243 169.049 75.2114 168.17 75.5446C167.291 75.8778 166.201 76.1473 165.042 76.2355C164.021 76.309 163.034 76.2355 162.111 76.1375C160.741 75.9905 156.184 75.5348 158.86 74.6528C159.896 74.3098 161.944 74.2804 163.172 74.1726C164.984 74.0207 166.795 73.8737 168.607 73.7365H168.612Z" fill="#FF9100"/>
</g>
<g opacity="0.3" style="mix-blend-mode:multiply">
<path d="M181.232 92.2343C180.284 92.3029 171.544 92.2637 164.365 92.2147C164.576 90.2694 165.047 88.3387 165.975 86.6188C166.727 85.237 167.743 84.0267 168.755 82.8212C170.64 80.5721 172.57 78.2152 173.312 75.378C174.303 71.6 173.046 67.6555 172.123 63.8628C171.254 60.3005 170.93 56.7577 172.359 53.3325C173.582 53.3227 174.623 53.3424 174.598 53.4159C172.197 60.2466 177.834 66.896 177.834 66.896C177.147 71.8843 176.778 80.2879 176.778 80.2879C176.778 80.2879 180.815 88.3044 181.232 92.2392V92.2343Z" fill="#FF9100"/>
</g>
<path d="M139.346 77.0881H148.711L147.694 84.9773C147.453 86.4228 147.91 87.4861 144.129 87.4861C140.54 87.4861 140.844 86.4571 140.574 85.041L139.342 77.093L139.346 77.0881Z" fill="#FA5069"/>
<path d="M150.311 79.4451C148.278 77.7252 145.612 79.5921 145.725 81.9833C145.769 82.9242 146.133 83.9238 146.953 84.3893C147.242 84.5559 147.576 84.6392 147.91 84.6686C149.177 84.7911 150.498 84.0659 151.038 82.9193C151.578 81.7677 151.279 80.2683 150.311 79.4451ZM149.953 82.4097C149.644 83.0663 148.892 83.4779 148.17 83.4044C147.984 83.3848 147.792 83.3407 147.625 83.2427C147.159 82.983 146.948 82.4097 146.923 81.8755C146.859 80.5133 148.377 79.45 149.535 80.43C150.09 80.9004 150.262 81.753 149.953 82.4097Z" fill="#FA5069"/>
<path d="M148.711 77.0391C148.711 77.1028 148.642 77.1665 148.509 77.2204C147.925 77.4801 146.138 77.6663 144.021 77.6663C141.905 77.6663 140.122 77.4801 139.533 77.2204C139.401 77.1616 139.332 77.1028 139.332 77.0391C139.332 76.6912 141.433 76.4119 144.021 76.4119C146.609 76.4119 148.711 76.6961 148.711 77.0391Z" fill="#FA5069"/>
<path d="M148.509 77.2203C147.925 77.48 146.138 77.6662 144.021 77.6662C141.905 77.6662 140.122 77.48 139.533 77.2203C140.117 76.9606 141.905 76.7744 144.021 76.7744C146.138 76.7744 147.92 76.9606 148.509 77.2203Z" fill="#42210B"/>
<path d="M155.06 79.7096C153.847 78.9158 152.865 78.7541 151.431 78.6169C151.22 78.5973 150.719 78.8227 150.542 78.9403C150.542 79.1265 150.591 79.9399 150.734 80.0624C151.043 80.3368 151.726 79.7047 152.035 79.9791C153.415 81.1895 154.387 82.4684 156.194 82.733C156.43 82.7673 156.69 82.782 156.896 82.6595C157.161 82.5027 157.269 82.1597 157.279 81.8657C157.289 81.4835 157.014 81.3904 156.734 81.1454C156.184 80.6603 155.683 80.1114 155.065 79.7096H155.06Z" fill="#D3835B"/>
<path d="M157.215 81.2777C157.156 82.9486 156.68 84.7764 156.557 86.4424C155.752 86.8148 155.163 87.1627 153.709 87.1137C152.639 87.0794 149.472 86.3493 149.005 85.9916L150.238 78.5435C151.033 78.6856 153.233 78.8081 153.974 79.1266C154.544 79.3716 154.357 79.4059 154.878 79.744C155.659 80.2536 156.435 80.7681 157.215 81.2777Z" fill="#F3B7A4"/>
<path d="M149.098 78.6365C148.607 78.7541 148.141 79.102 148.033 79.597C147.925 80.0919 148.323 80.6848 148.828 80.6554C148.386 80.577 147.93 80.9249 147.856 81.3659C147.782 81.8069 148.082 82.2773 148.504 82.439C148.092 82.5223 147.778 82.929 147.802 83.3504C147.827 83.7718 148.195 84.1491 148.612 84.1883C148.259 84.203 147.925 84.4529 147.817 84.7861C147.709 85.1242 147.827 85.526 148.102 85.7515C148.293 85.9083 148.539 85.9818 148.779 86.0455C149.025 86.1141 151.819 86.5306 152.153 86.462C152.487 86.3934 152.801 86.1141 152.786 85.771C152.766 85.33 151.981 85.1144 150.94 84.7224C151.48 84.8253 152.035 84.8449 152.58 84.791C152.796 84.7665 153.022 84.7273 153.184 84.5901C153.483 84.3353 153.454 83.8355 153.228 83.5072C153.002 83.1789 152.118 82.8261 151.765 82.6399C152.398 82.9241 153.749 82.6056 153.827 81.9196C153.906 81.2336 153.115 80.6211 152.025 80.5819C152.624 80.5623 153.282 80.5427 153.577 80.3075C153.812 80.1164 153.812 79.7293 153.645 79.4646C153.479 79.2049 153.189 79.0481 152.899 78.9403C152.05 78.6267 149.973 78.416 149.094 78.6267L149.098 78.6365Z" fill="#F3B7A4"/>
<path d="M148.612 84.1932C148.612 84.1932 149.187 84.3696 150.94 84.7322C150.94 84.7322 149.653 84.8253 148.612 84.1932Z" fill="#D3835B"/>
<path d="M148.504 82.4439C148.504 82.4439 150.233 82.3459 151.775 82.6497C151.775 82.6497 149.098 82.635 148.504 82.4439Z" fill="#D3835B"/>
<path d="M148.637 80.6553C148.637 80.6553 151.264 80.3613 152.162 80.5916C152.162 80.5916 149.251 80.8807 148.637 80.6553Z" fill="#D3835B"/>
<path d="M177.608 67.2635C177.785 73.2073 178.443 76.995 178.983 82.635C173.474 82.4096 166.746 82.1401 157.078 81.2434C157.019 82.6742 156.204 83.6101 156.115 86.6825C161.173 87.4763 180.019 92.396 185.504 89.7206C189.81 87.6184 185.013 64.6027 184.37 62.3242C182.97 57.3604 179.071 53.9843 174.004 53.8079L177.613 67.2635H177.608Z" fill="#F3B7A4"/>
<path d="M165.877 38.7205C166.339 38.2256 166.658 37.8287 167.031 37.2946" stroke="#FA5069" stroke-width="1.77" stroke-miterlimit="10"/>
<path d="M186.113 69.1107C183.643 70.5366 180.569 70.8943 177.809 71.6293C177.142 69.3214 175.664 65.4748 174.244 59.977C173.14 55.7041 174.284 53.3521 174.284 53.3521C179.346 53.5285 183.25 56.9095 184.65 61.8684C184.856 62.5985 185.494 65.4748 186.118 69.1107H186.113Z" fill="#FF9100"/>
<g style="mix-blend-mode:multiply" opacity="0.3">
<path d="M186.123 69.1107C183.653 70.5366 180.579 70.8943 177.819 71.6293C177.151 69.3214 175.673 65.4748 174.254 59.977C173.149 55.7041 174.294 53.3521 174.294 53.3521C179.356 53.5285 183.26 56.9095 184.659 61.8684C184.866 62.5985 185.504 65.4748 186.128 69.1107H186.123Z" fill="#FF9100"/>
</g>
<g opacity="0.2" style="mix-blend-mode:multiply">
<path d="M142.145 73.3199C142.327 72.7662 142.754 72.3203 142.921 71.7617C143.275 70.5808 142.489 69.3607 142.489 68.1258C142.489 67.0772 143.113 66.0482 144.046 65.5631C144.321 65.5827 144.517 65.8179 144.463 66.0874C144.414 66.3569 144.232 66.5823 144.095 66.8224C143.746 67.4447 143.702 68.2337 143.992 68.8854C144.203 69.3754 144.581 69.7723 144.841 70.2378C145.101 70.7033 145.229 71.3109 144.939 71.7519C144.689 72.1341 144.164 72.335 144.056 72.7809C143.864 73.5894 145.21 74.1529 145.023 74.9615C144.91 75.4564 144.286 75.6328 143.776 75.6279C143.27 75.6279 141.527 75.2065 142.145 73.315V73.3199Z" fill="#B3B3B3"/>
</g>
</g>
<path d="M119.131 41.3372H138.276C139.936 41.3372 141.281 39.9945 141.281 38.3383V28.8273C141.281 27.171 139.936 25.8284 138.276 25.8284L119.131 25.8284C117.471 25.8284 116.125 27.171 116.125 28.8273V38.3383C116.125 39.9945 117.471 41.3372 119.131 41.3372Z" fill="#FA5069"/>
<path d="M138.6 43.7137V40.8521H134.122L137.461 44.1841C137.883 44.6055 138.6 44.3066 138.6 43.7137Z" fill="#FA5069"/>
<path d="M121.271 35.4374C123.908 35.4374 123.913 31.3507 121.271 31.3507C118.63 31.3507 118.63 35.4374 121.271 35.4374Z" fill="#FFFBF3"/>
<path d="M128.701 35.4374C131.338 35.4374 131.343 31.3507 128.701 31.3507C126.059 31.3507 126.059 35.4374 128.701 35.4374Z" fill="#FFFBF3"/>
<path d="M136.13 35.6481C138.767 35.6481 138.772 31.5614 136.13 31.5614C133.488 31.5614 133.488 35.6481 136.13 35.6481Z" fill="#FFFBF3"/>
<path opacity="0.26" d="M189.688 0H16.2828C12.1041 0 8.29855 1.56803 5.41125 4.14547C11.9371 10.5891 19.396 16.2095 27.1298 21.1193C43.5403 31.5369 61.5025 39.2986 78.2468 49.1821C102.764 63.6569 124.557 82.6252 150.036 95.3409C167.233 103.926 187.139 109.321 206 107.836V16.2781C206 7.28642 198.698 0 189.688 0Z" fill="url(#paint0_linear_2439_1447)"/>
</g>
<defs>
<linearGradient id="paint0_linear_2439_1447" x1="153.513" y1="-26.6466" x2="99.7177" y2="66.7242" gradientUnits="userSpaceOnUse">
<stop stop-color="white" stop-opacity="0.6"/>
<stop offset="0.15" stop-color="white" stop-opacity="0.54"/>
<stop offset="0.45" stop-color="white" stop-opacity="0.37"/>
<stop offset="0.86" stop-color="white" stop-opacity="0.1"/>
<stop offset="1" stop-color="white" stop-opacity="0"/>
</linearGradient>
<clipPath id="clip0_2439_1447">
<rect width="206" height="166" fill="white"/>
</clipPath>
</defs>
</svg>
